<svg id="Capa_1" height="512" viewBox="0 0 512.019 512.019" width="512" xmlns="http://www.w3.org/2000/svg"><path d="M484.534 89.03c-1.158-12.986-11.863-22.779-24.901-22.779h-64.68v-9.532h1.259c9.236 0 16.75-7.514 16.75-16.749V16.749c0-9.235-7.514-16.749-16.75-16.749h-190.37c-4.142 0-7.5 3.357-7.5 7.5s3.358 7.5 7.5 7.5h190.37c.965 0 1.75.784 1.75 1.749V39.97c0 .965-.785 1.749-1.75 1.749H115.806c-.965 0-1.75-.784-1.75-1.749V16.749c0-.965.785-1.749 1.75-1.749h54.871c4.142 0 7.5-3.357 7.5-7.5s-3.358-7.5-7.5-7.5h-54.871c-9.236 0-16.75 7.514-16.75 16.749V39.97c0 9.235 7.514 16.749 16.75 16.749h1.259v9.532h-64.68c-13.038 0-23.743 9.793-24.901 22.779-.152 1.698-3.522 42.121 13.031 86.891 15.145 40.962 49.891 93.264 129.501 113.79 12.816 10.126 27.45 18.05 43.327 23.185l3.775 6.231c7.135 11.779 10.906 25.704 10.906 40.269 0 8.897-1.418 17.589-4.214 25.832l-5.242 15.448h-17.441c-17.898 0-32.46 14.562-32.46 32.461v15.711h-27.296c-7.703 0-13.97 6.268-13.97 13.971v35.23c0 7.703 6.267 13.97 13.97 13.97h229.277c7.703 0 13.97-6.267 13.97-13.97v-35.23c0-7.703-6.267-13.971-13.97-13.971h-27.296v-15.711c0-17.899-14.562-32.461-32.46-32.461h-17.441l-5.242-15.448c-2.797-8.242-4.215-16.934-4.215-25.832 0-14.564 3.771-28.489 10.906-40.269l3.775-6.231c15.877-5.135 30.51-13.058 43.327-23.185 79.61-20.526 114.356-72.828 129.501-113.79 16.553-44.77 13.183-85.192 13.031-86.891zM119.842 208.354c-13.984-13.092-24.697-29.333-32.024-48.69-5.091-13.45-8.423-28.053-9.906-43.413h39.153v64.412c0 9.48.959 18.74 2.777 27.691zM54.585 170.72c-15.395-41.638-12.299-78.796-12.16-80.357a9.948 9.948 0 019.96-9.111h64.68v20H77.291c-4.052 0-7.94 1.717-10.668 4.711a14.48 14.48 0 00-3.704 11.074c1.579 16.923 5.236 33.052 10.87 47.938 11.127 29.398 29.138 52.353 53.792 68.695a138.988 138.988 0 0018.964 32.459c-54.338-22.523-79.929-62.871-91.96-95.409zm315.033 293.128v33.171H142.4v-33.171zm-58.726-48.172c9.627 0 17.46 7.833 17.46 17.461v15.711H183.667v-15.711c0-9.628 7.833-17.461 17.46-17.461zm-36.887-25.628l3.606 10.628h-43.205l3.607-10.629c3.324-9.799 5.01-20.111 5.01-30.651 0-14.753-3.297-28.996-9.567-41.629a139.283 139.283 0 0022.553 1.84c7.678 0 15.21-.636 22.552-1.84-6.27 12.633-9.567 26.876-9.567 41.629.001 10.541 1.686 20.853 5.011 30.652zm-17.996-85.442c-68.343 0-123.944-55.601-123.944-123.943V56.719h247.888v123.944c0 68.343-55.601 123.943-123.944 123.943zM457.434 170.72c-12.031 32.539-37.623 72.891-91.964 95.414a139.022 139.022 0 0018.992-32.522c21.169-14.057 37.472-32.989 48.698-56.695a7.5 7.5 0 00-13.556-6.42c-6.95 14.677-16.116 27.322-27.434 37.903a139.002 139.002 0 002.785-27.736v-64.412h39.153a178.187 178.187 0 01-3.687 22.758 7.5 7.5 0 005.627 8.991c4.033.934 8.062-1.589 8.991-5.626a193.702 193.702 0 004.062-25.338 14.48 14.48 0 00-3.704-11.074 14.462 14.462 0 00-10.668-4.711h-39.774v-20h64.68a9.948 9.948 0 019.96 9.112c.137 1.56 3.233 38.718-12.161 80.356z"/><path d="M305.328 145.663l-21.506-3.125a2.879 2.879 0 01-2.165-1.573l-9.618-19.488c-3.033-6.146-9.175-9.964-16.029-9.964s-12.996 3.818-16.029 9.964l-9.618 19.488a2.874 2.874 0 01-2.165 1.573l-21.506 3.125c-6.783.985-12.312 5.646-14.43 12.165s-.385 13.54 4.523 18.325l15.562 15.168c.678.661.987 1.612.827 2.546l-3.674 21.42c-1.159 6.755 1.566 13.453 7.111 17.482 5.544 4.027 12.758 4.55 18.826 1.361l19.235-10.113a2.872 2.872 0 012.676 0l19.236 10.113a17.887 17.887 0 008.334 2.072c3.691 0 7.358-1.157 10.491-3.434 5.545-4.029 8.27-10.728 7.111-17.482l-3.674-21.42a2.873 2.873 0 01.827-2.545l15.563-15.17c4.908-4.784 6.641-11.806 4.523-18.324s-7.649-11.179-14.431-12.164zm-.563 19.748l-15.563 15.17a17.874 17.874 0 00-5.141 15.821l3.674 21.42c.263 1.533-.604 2.42-1.144 2.813-.539.393-1.651.945-3.028.219l-19.236-10.113a17.867 17.867 0 00-16.636 0l-19.235 10.113c-1.376.725-2.488.173-3.029-.219-.54-.393-1.406-1.279-1.144-2.813l3.674-21.42a17.871 17.871 0 00-5.141-15.822l-15.562-15.168c-1.114-1.086-.935-2.313-.728-2.948.206-.635.782-1.733 2.321-1.957l21.506-3.125a17.874 17.874 0 0013.459-9.778l9.618-19.488c.688-1.395 1.911-1.603 2.578-1.603s1.89.208 2.578 1.603l9.618 19.488a17.871 17.871 0 0013.459 9.778l21.507 3.125c1.539.224 2.115 1.322 2.321 1.957.208.635.387 1.862-.726 2.947z"/></svg>