<svg viewBox="0 0 64 64" xmlns="http://www.w3.org/2000/svg"><path d="M40.444 17.124a17.925 17.925 0 1017.925 17.925 17.945 17.945 0 00-17.925-17.925zm1 33.8v-3.34h-2v3.339A15.923 15.923 0 0124.57 36.049h3.338v-2H24.57a15.923 15.923 0 0114.874-14.875v3.338h2v-3.338a15.922 15.922 0 0114.874 14.875h-3.339v2h3.339a15.921 15.921 0 01-14.874 14.874z"/><path d="M53.855 16.172l1.008-1.46 1.69 1.167a1 1 0 001.391-.255l2.069-3a1 1 0 00-.255-1.392l-5.026-3.466a1 1 0 00-1.391.255l-2.069 3a1 1 0 00.255 1.392l1.69 1.166-1.04 1.506a23 23 0 00-7.759-2.854V9.289h3.455a1 1 0 001-1v-4.6a1 1 0 00-1-1H33.016a1 1 0 00-1 1v4.6a1 1 0 001 1h3.455v2.938c-.594.1-1.182.223-1.759.37H7.5a1 1 0 00-.855 1.518l3.714 6.134a1 1 0 00.856.482h7.571v-2h-7.008L9.274 14.6h20.3a23.306 23.306 0 00-10.615 11.79H3.09v2h15.164A23.148 23.148 0 0029.569 55.5H13.637l-2.5-4.135h8.885v-2H9.358a1 1 0 00-.858 1.518l3.715 6.134a1 1 0 00.855.483h21.642a23.161 23.161 0 0019.143-41.328zm.564-6.191l3.38 2.334-.933 1.35-3.38-2.334zm-20.4-5.29h12.854v2.6H34.016zm4.455 4.6h3.947v2.68c-.651-.056-1.308-.09-1.974-.09s-1.322.034-1.973.09zm1.973 46.929a21.17 21.17 0 1121.17-21.169 21.194 21.194 0 01-21.173 21.167z"/><path d="M44.422 35.049a3.978 3.978 0 10-3.978 3.977 3.936 3.936 0 002.472-.886l6.09 4.545 1.2-1.6-6.077-4.535a3.959 3.959 0 00.293-1.501zm-3.978 1.977a1.978 1.978 0 111.978-1.977 1.979 1.979 0 01-1.978 1.977zM.875 34.049h11.5v2H.875zm2.215 7.658h11.856v2H3.09z"/></svg>