<svg xmlns="http://www.w3.org/2000/svg" id="Objects" viewBox="0 0 64 64" width="512" height="512"><path d="M62.763 24.35a3.776 3.776 0 00-2.926-1.088 13.195 13.195 0 00-12.987-4.141l-5.41-5.586a1 1 0 00-.711-.3 1.143 1.143 0 00-.714.293l-8.566 8.566a1 1 0 000 1.414l.408.409-1.557 1.551-5.706-2.009a1 1 0 00-.227-1.046l-9-9.005a1 1 0 00-1.411 0L.421 26.8a1 1 0 000 1.418l9.076 9.072a1 1 0 001.414 0l.579-.579 2.122 2.123.4 1.768-1.112 1.109a3.149 3.149 0 00-.2 4.328 3.059 3.059 0 002.173 1.016A3.045 3.045 0 0017.844 50a2.987 2.987 0 00.755 1.938 3.059 3.059 0 002.194 1.018 2.989 2.989 0 00.755 1.93 3.06 3.06 0 002.214 1.022h.079A3.1 3.1 0 0026.024 55l.595-.594.563.563a3.193 3.193 0 005.38-1.594 3.176 3.176 0 00.558.053 3.064 3.064 0 003.074-2.96 3.044 3.044 0 002.947-2.947 3.051 3.051 0 002.058-.893 3.087 3.087 0 000-4.362l-.092-.092.045-.046A13.3 13.3 0 0063.2 32.086a13.416 13.416 0 00-.269-2.57 3.791 3.791 0 00-.168-5.166zm-1.414 3.958L50.821 38.836a1.846 1.846 0 01-2.545 0L42.4 32.962a1.8 1.8 0 012.545-2.544l3.893 3.893a1 1 0 001.414 0l8.548-8.547a1.8 1.8 0 012.545 2.544zM40.71 15.656l4.013 4.144a13.364 13.364 0 00-4.263 2.868l-3.381-3.381zM35.665 20.7l3.5 3.5a13.3 13.3 0 00-1.535 2.654L33.57 22.8zm-21.013-5.175l3.861 3.862L6.467 31.433l-3.924-3.922zM7.881 32.846L19.927 20.8l2.319 2.319L10.2 35.165zm6.431 10.28l2.374-2.374a1.085 1.085 0 011.535 0 1.087 1.087 0 010 1.535l-2.458 2.457a1.1 1.1 0 01-.8.317 1.079 1.079 0 01-.779-.36 1.166 1.166 0 01.128-1.575zm2.865 3.032l2.458-2.458a1.085 1.085 0 111.534 1.534L18.8 47.609l-.005.006-.077.077a1.085 1.085 0 11-1.536-1.534zm3.03 2.868l2.376-2.377a1.086 1.086 0 011.536 1.535l-2.458 2.457a1.025 1.025 0 01-.8.318 1.079 1.079 0 01-.78-.361 1.166 1.166 0 01.126-1.572zm3.607 4.882a1.081 1.081 0 01-.78-.361 1.165 1.165 0 01.125-1.575l1.141-1.145 1.233-1.227a1.085 1.085 0 111.534 1.535l-2.458 2.455a1.047 1.047 0 01-.795.318zm6.453-.335a1.2 1.2 0 01-1.671-.014L28.033 53l.449-.449a3.063 3.063 0 00.848-1.625l.951.951a1.19 1.19 0 01-.014 1.7zm9.517-8.355a1.108 1.108 0 01-1.533 0L35.134 42.1l-1.414 1.415 3.117 3.117a1.089 1.089 0 010 1.536 1.112 1.112 0 01-1.535 0L32.13 45l-1.414 1.41 3.172 3.172a1.085 1.085 0 11-1.535 1.534l-.657-.657-2.6-2.6-.484.484c-.044-.05-.078-.107-.127-.155a3.054 3.054 0 00-2.055-.863 3.05 3.05 0 00-2.951-2.977 3 3 0 00-2.946-2.92 3.07 3.07 0 00-4.833-2.437l-.2-.886a1 1 0 00-.268-.485L12.9 35.293l10.229-10.229 3.239 1.14-1.891.268a1 1 0 00-.567.283l-5.3 5.3a3.086 3.086 0 004.363 4.365l3.291-3.281a1.939 1.939 0 011.5-.616 2.1 2.1 0 011.494.626l10.527 10.535a1.085 1.085 0 01-.001 1.534zm-9.1-13.481a4.084 4.084 0 00-2.909-1.218h-.013a4.088 4.088 0 00-2.9 1.2L21.563 35a1.085 1.085 0 11-1.535-1.535l5.059-5.059 5.615-.795a1 1 0 00.567-.283l2-2 3.66 3.659a13.177 13.177 0 002.74 11.651l-.019.086zm19.2 11.672a11.324 11.324 0 117.931-19.4 3.72 3.72 0 00-.417.341l-7.841 7.84L46.363 29a3.8 3.8 0 00-5.373 5.374l5.873 5.874a3.8 3.8 0 005.372 0l8.921-8.921c.017.252.044.5.044.757a11.336 11.336 0 01-11.324 11.325z"/></svg>