<svg version="1.1" id="Capa_1" xmlns="http://www.w3.org/2000/svg" x="0" y="0" viewBox="0 0 511.999 511.999" xml:space="preserve"><path d="M95.758 344.692h-.081c-4.142 0-7.459 3.358-7.459 7.5 0 4.142 3.398 7.5 7.54 7.5a7.5 7.5 0 000-15zm64.129 0h-.08c-4.142 0-7.46 3.358-7.46 7.5 0 4.142 3.398 7.5 7.54 7.5a7.5 7.5 0 000-15zm264.532 0h-.08c-4.142 0-7.46 3.358-7.46 7.5 0 4.142 3.398 7.5 7.54 7.5a7.5 7.5 0 000-15z"/><path d="M505.107 254.016l-10.084-10.084-20.315-60.946a7.5 7.5 0 00-2.272-14.647h-72.661v-32.578c0-8.556-6.96-15.516-15.516-15.516H15.516C6.96 120.245 0 127.206 0 135.761v176.354c0 8.556 6.96 15.516 15.516 15.516h8.532v16.544c0 8.556 6.96 15.516 15.516 15.516h17.271c3.516 18.24 19.591 32.064 38.842 32.064 13.182 0 24.871-6.486 32.064-16.428 7.194 9.942 18.883 16.428 32.065 16.428 19.251 0 35.327-13.824 38.842-32.064h186.848c3.516 18.24 19.591 32.064 38.842 32.064 21.816 0 39.564-17.749 39.564-39.564 0-.172-.011-.341-.013-.512h32.594c8.556 0 15.516-6.96 15.516-15.516v-65.508a23.372 23.372 0 00-6.892-16.639zM56.835 344.692H39.564a.516.516 0 01-.516-.516v-16.544h25.645a39.41 39.41 0 00-7.858 17.06zm38.842 32.065c-13.545 0-24.564-11.02-24.564-24.564 0-13.493 10.937-24.477 24.411-24.561h.308c13.474.083 24.411 11.067 24.411 24.561-.001 13.544-11.021 24.564-24.566 24.564zm64.13 0c-13.545 0-24.565-11.02-24.565-24.564 0-13.493 10.937-24.477 24.411-24.561h.308c13.474.083 24.411 11.067 24.411 24.561-.001 13.544-11.02 24.564-24.565 24.564zm225.69-32.065H198.649a39.404 39.404 0 00-7.859-17.061h145.371a7.5 7.5 0 000-15H15.516a.516.516 0 01-.516-.516V135.761c0-.285.231-.516.516-.516h368.742c.285 0 .516.231.516.516v176.871h-16.545a7.5 7.5 0 000 15h25.126a39.398 39.398 0 00-7.858 17.06zm95.237-96.193h-48.379a.516.516 0 01-.516-.516v-32.581h37.863l11.032 33.097zm-56.395 128.258c-13.545 0-24.564-11.02-24.564-24.564 0-13.493 10.937-24.477 24.411-24.561h.154l.052-.003c13.521.028 24.513 11.036 24.513 24.563-.002 13.545-11.021 24.565-24.566 24.565zM497 336.165a.516.516 0 01-.516.516h-35.752c-6.045-14.127-20.08-24.052-36.393-24.052-.052 0-.102.004-.154.004h-24.41V183.854c0-.285.231-.516.516-.516h58.723l5.688 17.064h-40.363a7.5 7.5 0 00-7.5 7.5v40.081c0 8.556 6.96 15.516 15.516 15.516h61.022l1.124 1.124a8.479 8.479 0 012.499 6.033v17.928h-8.532a7.5 7.5 0 000 15H497v32.581z"/><path d="M360.209 280.567H39.564a7.5 7.5 0 000 15h320.645a7.5 7.5 0 000-15z"/></svg>