<svg id="Layer_1" height="512" width="512" xmlns="http://www.w3.org/2000/svg"><path d="M197.5 107a7.5 7.5 0 00-7.5-7.5h-54a7.5 7.5 0 00-7.5 7.5v50a7.5 7.5 0 007.5 7.5h54a7.5 7.5 0 007.5-7.5zm-15 42.5h-39v-35h39zm201-42.5a7.5 7.5 0 00-7.5-7.5h-54a7.5 7.5 0 00-7.5 7.5v50a7.5 7.5 0 007.5 7.5h54a7.5 7.5 0 007.5-7.5zm-15 42.5h-39v-35h39zm-78-42.5a7.5 7.5 0 00-7.5-7.5h-54a7.5 7.5 0 00-7.5 7.5v50a7.5 7.5 0 007.5 7.5h54a7.5 7.5 0 007.5-7.5zm-15 42.5h-39v-35h39zm-78 43.5a7.5 7.5 0 00-7.5-7.5h-54a7.5 7.5 0 00-7.5 7.5v50a7.5 7.5 0 007.5 7.5h54a7.5 7.5 0 007.5-7.5zm-15 42.5h-39v-35h39zm201-42.5a7.5 7.5 0 00-7.5-7.5h-54a7.5 7.5 0 00-7.5 7.5v50a7.5 7.5 0 007.5 7.5h54a7.5 7.5 0 007.5-7.5zm-15 42.5h-39v-35h39zm-78-42.5a7.5 7.5 0 00-7.5-7.5h-54a7.5 7.5 0 00-7.5 7.5v50a7.5 7.5 0 007.5 7.5h54a7.5 7.5 0 007.5-7.5zm-15 42.5h-39v-35h39zm-85.5 37h-54a7.5 7.5 0 00-7.5 7.5v50a7.5 7.5 0 007.5 7.5h54a7.5 7.5 0 007.5-7.5v-50a7.5 7.5 0 00-7.5-7.5zm-7.5 50h-39v-35h39zm193.5-50h-54a7.5 7.5 0 00-7.5 7.5v50a7.5 7.5 0 007.5 7.5h54a7.5 7.5 0 007.5-7.5v-50a7.5 7.5 0 00-7.5-7.5zm-7.5 50h-39v-35h39zm-85.5-50h-54a7.5 7.5 0 00-7.5 7.5v50a7.5 7.5 0 007.5 7.5h54a7.5 7.5 0 007.5-7.5v-50a7.5 7.5 0 00-7.5-7.5zm-7.5 50h-39v-35h39z"/><path d="M488.5 435.5h-68V67a7.5 7.5 0 00-7.5-7.5h-28.615a7.5 7.5 0 000 15H405.5v361h-51V363a7.5 7.5 0 00-7.5-7.5h-50.769a7.5 7.5 0 000 15h9.269v65h-99v-65h57.423a7.5 7.5 0 000-15H165a7.5 7.5 0 00-7.5 7.5v72.5h-51v-47.526a7.5 7.5 0 00-15 0V435.5h-68C10.542 435.5 0 446.042 0 459s10.542 23.5 23.5 23.5h465c12.958 0 23.5-10.542 23.5-23.5s-10.542-23.5-23.5-23.5zm-168-65h19v65h-19zm-148 0h19v65h-19zm316 97h-465c-4.687 0-8.5-3.813-8.5-8.5s3.813-8.5 8.5-8.5h465c4.687 0 8.5 3.813 8.5 8.5s-3.813 8.5-8.5 8.5z"/><path d="M99 363.68a7.5 7.5 0 007.5-7.5V74.5h244.654a7.5 7.5 0 000-15H199.5V37a7.5 7.5 0 00-7.5-7.5h-60a7.5 7.5 0 00-7.5 7.5v22.5H99a7.5 7.5 0 00-7.5 7.5v289.18a7.5 7.5 0 007.5 7.5zM139.5 44.5h45v15h-45z"/></svg>