<svg id="Capa_1" height="512" width="512" xmlns="http://www.w3.org/2000/svg"><path d="M499.5 456.743c6.893 0 12.5-5.607 12.5-12.5V256.819c0-6.893-5.607-12.5-12.5-12.5h-5.169a69.64 69.64 0 002.793-19.567c0-32.9-22.423-59.666-49.985-59.666-5.683 0-11.236 1.129-16.484 3.309v-7.589c0-4.143-3.357-7.5-7.5-7.5s-7.5 3.357-7.5 7.5v7.589a42.802 42.802 0 00-16.302-3.306c-3-8.207-7.859-15.714-14.362-21.964-9.041-8.689-20.382-14.131-32.522-15.744-.035-.25-.069-.5-.109-.75v-23.813c0-4.143-3.357-7.5-7.5-7.5-3.258 0-6.022 2.081-7.058 4.983a44.179 44.179 0 00-14.291-8.363 69.95 69.95 0 00.055-2.717c0-8.321-1.402-16.372-4.168-23.929a7.497 7.497 0 00-9.62-4.466 7.498 7.498 0 00-4.466 9.62c2.159 5.9 3.254 12.218 3.254 18.774l-.002.141c-2.461.004-4.935.2-7.4.623-4.482.771-8.01 4.3-8.776 8.779a44.212 44.212 0 00-.5 10.842c-.6-.026-1.201-.051-1.806-.051-5.683 0-11.235 1.129-16.483 3.309v-7.588c0-4.143-3.357-7.5-7.5-7.5s-7.5 3.357-7.5 7.5v7.588c-5.249-2.18-10.801-3.309-16.484-3.309-6.112 0-11.969 1.322-17.387 3.729-8.46-11.322-20.47-18.784-33.925-19.859a56.05 56.05 0 01-.175-4.204c0-24.629 15.694-44.666 34.986-44.666 5.78 0 11.419 1.833 16.484 5.319v.643c0 4.143 3.357 7.5 7.5 7.5s7.5-3.357 7.5-7.5v-.643c5.065-3.486 10.704-5.319 16.483-5.319 4.477 0 8.837 1.074 12.959 3.192a7.5 7.5 0 106.856-13.342c-6.264-3.219-12.931-4.851-19.814-4.851-5.683 0-11.235 1.129-16.483 3.309v-7.588c0-4.143-3.357-7.5-7.5-7.5s-7.5 3.357-7.5 7.5v7.588c-5.249-2.18-10.801-3.309-16.484-3.309-27.563 0-49.986 26.766-49.986 59.666 0 1.913.095 3.799.246 5.665a43.63 43.63 0 00-4.93 1.71v-7.589c0-4.143-3.357-7.5-7.5-7.5s-7.5 3.357-7.5 7.5v7.589c-5.248-2.18-10.801-3.309-16.484-3.309-18.189 0-34.136 11.66-42.88 29.044v-12.781c0-4.143-3.357-7.5-7.5-7.5-3.258 0-6.023 2.081-7.058 4.983a44.324 44.324 0 00-36.632-10.318 10.766 10.766 0 00-8.782 8.779c-2.425 14.146 2.177 28.642 12.31 38.773.98.98 2.009 1.885 3.06 2.757a58.98 58.98 0 00-3.9 3.553c-10.955 10.954-16.988 25.518-16.988 41.01 0 3.769.367 7.543 1.091 11.221 1.529 7.767-.307 15.737-5.037 21.867a77.731 77.731 0 00-11.019 19.643H12.5c-6.893 0-12.5 5.607-12.5 12.5V444.24c0 6.893 5.607 12.5 12.5 12.5h7v22.48h-12c-4.143 0-7.5 3.357-7.5 7.5s3.357 7.5 7.5 7.5h497c4.143 0 7.5-3.357 7.5-7.5s-3.357-7.5-7.5-7.5h-12v-22.48h7zm-97.754-260.59l.001-.002a58.38 58.38 0 001.06-13.576 56.501 56.501 0 00-.142-2.26c4.549.585 8.952 2.311 12.99 5.09v.643c0 4.143 3.357 7.5 7.5 7.5s7.5-3.357 7.5-7.5v-.643c5.065-3.486 10.703-5.319 16.484-5.319 19.291 0 34.985 20.037 34.985 44.666 0 7.016-1.277 13.656-3.546 19.567h-58.477c-2.67-9.467-7.131-18.371-13.291-26.356-4.746-6.154-6.591-14.104-5.064-21.81zM344.86 157.12c4.143 0 7.5-3.357 7.5-7.5v-7.066c19.386 3.523 34.677 20.384 35.458 40.601a43.326 43.326 0 01-.786 10.082c-2.369 11.952.511 24.304 7.901 33.887a62.755 62.755 0 019.409 17.195h-39.749V238.1c0-30.052-24.448-54.5-54.5-54.5H301.9c.315-11.013 4.74-21.323 12.564-29.146 6.323-6.321 14.269-10.418 22.896-11.928v7.093a7.5 7.5 0 007.5 7.501zm4.734 80.981v6.219H218.746v-6.219c0-21.78 17.72-39.5 39.5-39.5h18.663c.825 3.246 3.758 5.65 7.261 5.65s6.436-2.404 7.261-5.65h18.663c21.78 0 39.5 17.719 39.5 39.5zM306.81 104.406a29.232 29.232 0 0122.524 8.495c4.061 4.06 6.751 9.083 7.909 14.473a57.432 57.432 0 00-15.647 4.347 29.396 29.396 0 01-6.292-4.791c-5.955-5.953-9.019-14.191-8.494-22.524zm-64.697 20.15c5.78 0 11.419 1.833 16.484 5.319v.643c0 4.143 3.357 7.5 7.5 7.5s7.5-3.357 7.5-7.5v-.643c5.065-3.486 10.704-5.319 16.483-5.319 2.031 0 4.019.231 5.955.657a44.06 44.06 0 008.661 12.324 44.3 44.3 0 003.06 2.758 58.98 58.98 0 00-3.9 3.553c-7.146 7.145-12.181 15.832-14.831 25.304a7.464 7.464 0 00-4.857-1.791 7.499 7.499 0 00-7.5 7.5v8.739h-18.424c-12.232 0-23.535 4.052-32.64 10.882a54.613 54.613 0 00-16.441-10.339 55.454 55.454 0 01-2.038-14.923c.002-24.627 15.696-44.664 34.988-44.664zm-102.655-16.268c5.782 0 11.42 1.833 16.484 5.318v.643c0 4.143 3.357 7.5 7.5 7.5s7.5-3.357 7.5-7.5v-.643c5.064-3.485 10.703-5.318 16.484-5.318 9.67 0 18.43 5.041 24.767 13.165-12.175 10.892-20.067 28.25-20.067 47.769 0 3.825.317 7.56.899 11.185a54.863 54.863 0 00-4.093-.171H170.51v-8.739c0-4.143-3.357-7.5-7.5-7.5s-7.5 3.357-7.5 7.5v8.739h-9.583c-2.293-11.486-8.049-22.047-16.718-30.379-6.434-6.184-14.037-10.714-22.259-13.403 5.151-16.486 17.78-28.166 32.508-28.166zm-88.431 2.85a29.26 29.26 0 0122.525 8.495c4.06 4.06 6.75 9.083 7.908 14.473a57.464 57.464 0 00-15.65 4.348 29.414 29.414 0 01-6.29-4.792c-5.953-5.954-9.016-14.192-8.493-22.524zM39.016 233.841c7.372-9.554 10.244-21.921 7.879-33.929a43.221 43.221 0 01-.808-8.323c0-11.484 4.473-22.282 12.595-30.402 6.323-6.321 14.269-10.418 22.896-11.928v7.092c0 4.143 3.357 7.5 7.5 7.5s7.5-3.357 7.5-7.5v-7.067c16.334 2.968 29.749 15.409 34.036 31.349-27.011 3.212-48.029 26.242-48.029 54.103v9.584H32.488a62.301 62.301 0 016.528-10.479zM15 259.319h133c4.143 0 7.5-3.357 7.5-7.5s-3.357-7.5-7.5-7.5H97.586v-9.584c0-21.78 17.72-39.5 39.5-39.5h18.663c.825 3.246 3.758 5.65 7.261 5.65s6.436-2.404 7.261-5.65h18.663c9.959 0 19.055 3.72 26.008 9.826-7.016 9.173-11.196 20.625-11.196 33.039v6.219H184c-4.143 0-7.5 3.357-7.5 7.5s3.357 7.5 7.5 7.5h313v83.712H15zm120.5 219.905h-101v-22.48h101zm342 0h-101v-22.48h101zM336 441.743c-4.143 0-7.5 3.357-7.5 7.5s3.357 7.5 7.5 7.5h25.5v22.48h-211v-22.48H300c4.143 0 7.5-3.357 7.5-7.5s-3.357-7.5-7.5-7.5H15v-83.712h482v83.712z"/><circle cx="39" cy="281.623" r="7.5"/><circle cx="39" cy="314.756" r="7.5"/><circle cx="39" cy="383.623" r="7.5"/><circle cx="39" cy="416.756" r="7.5"/><circle cx="473" cy="281.623" r="7.5"/><circle cx="473" cy="314.756" r="7.5"/><circle cx="473" cy="383.623" r="7.5"/><circle cx="473" cy="416.756" r="7.5"/></svg>