<svg version="1.1" id="Capa_1" xmlns="http://www.w3.org/2000/svg" x="0" y="0" viewBox="0 0 511.999 511.999" xml:space="preserve"><path d="M70.792 130.062a7.5 7.5 0 00-7.5 7.5v148a7.5 7.5 0 0015 0v-148a7.5 7.5 0 00-7.5-7.5zm45.416 49.649a7.5 7.5 0 00-7.5 7.5v98.35a7.5 7.5 0 0015 0v-98.35c0-4.143-3.357-7.5-7.5-7.5zm0-49.649a7.5 7.5 0 00-7.5 7.5v14.753a7.5 7.5 0 0015 0v-14.753c0-4.143-3.357-7.5-7.5-7.5zm60.417 0a7.5 7.5 0 00-7.5 7.5v148a7.5 7.5 0 0015 0v-148a7.5 7.5 0 00-7.5-7.5zm52.917 0a7.5 7.5 0 00-7.5 7.5v148a7.5 7.5 0 0015 0v-148a7.5 7.5 0 00-7.5-7.5zm52.916 0a7.5 7.5 0 00-7.5 7.5v148a7.5 7.5 0 0015 0v-148c0-4.143-3.357-7.5-7.5-7.5zm52.917 0a7.5 7.5 0 00-7.5 7.5v148a7.5 7.5 0 0015 0v-148a7.5 7.5 0 00-7.5-7.5zm52.792 135.808a7.5 7.5 0 00-7.5 7.5v12.192a7.5 7.5 0 0015 0V273.37a7.5 7.5 0 00-7.5-7.5zm0-135.808a7.5 7.5 0 00-7.5 7.5v100.912a7.5 7.5 0 0015 0V137.562a7.5 7.5 0 00-7.5-7.5zm53.041 0a7.5 7.5 0 00-7.5 7.5v148a7.5 7.5 0 0015 0v-148a7.5 7.5 0 00-7.5-7.5z"/><path d="M500.289 318.569h-5.777V105.346c0-9.723-7.91-17.633-17.633-17.633H35.122c-9.723 0-17.633 7.91-17.633 17.633v213.223h-5.777C5.254 318.569 0 323.823 0 330.281v29.33c0 6.458 5.254 11.711 11.711 11.711h30.677a48.112 48.112 0 00-.262 4.94c0 26.481 21.544 48.025 48.026 48.025 26.482 0 48.025-21.544 48.025-48.025 0-1.655-.093-3.302-.262-4.94h236.169a48.112 48.112 0 00-.262 4.94c0 26.481 21.544 48.025 48.025 48.025 26.481 0 48.026-21.544 48.026-48.025 0-1.655-.093-3.302-.262-4.94h30.677c6.458 0 11.711-5.254 11.711-11.711v-29.33c.001-6.458-5.253-11.712-11.71-11.712zm-467.8-213.223a2.636 2.636 0 012.633-2.633h441.757a2.636 2.636 0 012.633 2.633v213.223H32.489V105.346zm57.663 303.941c-18.21 0-33.026-14.815-33.026-33.025 0-1.659.124-3.31.37-4.94h8.072a25.314 25.314 0 00-.484 4.94c0 13.822 11.246 25.067 25.068 25.067 13.822 0 25.067-11.245 25.067-25.067 0-1.678-.164-3.331-.484-4.94h8.072a33.1 33.1 0 01.37 4.94c0 18.21-14.815 33.025-33.025 33.025zm-10.068-33.025c0-1.759.448-3.449 1.291-4.94h17.553a10.003 10.003 0 011.291 4.94c0 5.551-4.516 10.067-10.067 10.067s-10.068-4.516-10.068-10.067zm341.764 33.025c-18.21 0-33.025-14.815-33.025-33.025 0-1.659.124-3.31.37-4.94h8.072a25.314 25.314 0 00-.484 4.94c0 13.822 11.245 25.067 25.067 25.067 13.822 0 25.068-11.245 25.068-25.067 0-1.678-.164-3.331-.484-4.94h8.072a33.1 33.1 0 01.37 4.94c0 18.21-14.815 33.025-33.026 33.025zm-10.067-33.025c0-1.759.448-3.449 1.291-4.94h17.553a10.003 10.003 0 011.291 4.94c0 5.551-4.517 10.067-10.068 10.067-5.551 0-10.067-4.516-10.067-10.067zM497 356.322H15V333.57h482v22.752z"/></svg>