<svg height="512pt" viewBox="-21 0 512 512" width="512pt" xmlns="http://www.w3.org/2000/svg"><path d="M469.445 206.465c0-16.133-13.125-29.258-29.254-29.258h-21.574c-16.133 0-29.258 13.125-29.258 29.258v36.047l-.004 64.332a1.51 1.51 0 01-1.511 1.511h-8.578c-4.02-7.804-12.16-13.156-21.532-13.156H256.461v-23.222h46.027c16.25 0 31.79-6.946 42.625-19.055a57.283 57.283 0 0014.227-44.469L341.809 50.875C338.579 21.871 314.14 0 284.96 0H184.488c-29.183 0-53.62 21.871-56.847 50.875l-2.672 24.012a7.504 7.504 0 006.625 8.285 7.504 7.504 0 008.285-6.625l2.668-24.016C144.93 31.137 162.957 15 184.488 15h100.473c21.527 0 39.559 16.137 41.937 37.531l17.532 157.582a42.246 42.246 0 01-10.496 32.805 42.24 42.24 0 01-31.446 14.059H166.957a42.252 42.252 0 01-31.445-14.059 42.246 42.246 0 01-10.496-32.805l11.543-103.754a7.5 7.5 0 00-14.907-1.656l-11.543 103.75a57.254 57.254 0 0014.227 44.469 57.26 57.26 0 0042.621 19.055h46.031v23.222H111.711c-9.367 0-17.512 5.352-21.531 13.156h-8.578a1.513 1.513 0 01-1.512-1.511l-.004-64.332v-36.047c0-16.133-13.125-29.258-29.258-29.258h-21.57C13.125 177.207 0 190.332 0 206.465c0 21.68 15.93 39.71 36.7 43.008v57.37c0 24.762 20.144 44.903 44.902 44.903h20.78c7.477 6.438 17.196 10.332 27.81 10.332h82.796v65.813h-70.25c-34.394 0-62.375 27.98-62.375 62.375 0 11.984 9.75 21.734 21.735 21.734 11.988 0 21.738-9.75 21.738-21.734 0-10.426 8.477-18.907 18.902-18.907h70.25v18.907c0 11.984 9.75 21.734 21.735 21.734 11.988 0 21.738-9.75 21.738-21.734v-18.907h70.25c10.422 0 18.902 8.48 18.902 18.903 0 11.984 9.75 21.738 21.735 21.738 11.988 0 21.738-9.754 21.738-21.738 0-34.395-27.984-62.375-62.375-62.375h-70.25v-65.813h14.629c4.144 0 7.5-3.355 7.5-7.5a7.5 7.5 0 00-7.5-7.5h-140.9c-15.261 0-27.68-12.418-27.68-27.68 0-5.07 4.13-9.199 9.2-9.199h246.023c5.075 0 9.2 4.13 9.2 9.2 0 15.261-12.414 27.68-27.68 27.68h-38.137a7.5 7.5 0 100 15h38.137c10.613 0 20.336-3.895 27.809-10.329h20.78c24.762 0 44.903-20.144 44.903-44.902v-57.375c20.774-3.293 36.7-21.324 36.7-43.004zM248.961 442.89h77.75c26.121 0 47.375 21.25 47.375 47.375 0 3.714-3.024 6.734-6.738 6.734s-6.735-3.02-6.735-6.734c0-18.696-15.21-33.907-33.902-33.907h-77.75a7.5 7.5 0 00-7.5 7.5v26.407c0 3.714-3.024 6.734-6.738 6.734s-6.735-3.02-6.735-6.734v-26.407c0-4.14-3.36-7.5-7.5-7.5h-77.75c-18.695 0-33.902 15.211-33.902 33.903 0 3.715-3.024 6.738-6.738 6.738s-6.735-3.023-6.735-6.738c0-26.121 21.25-47.375 47.375-47.375h77.75a7.5 7.5 0 007.5-7.5v-73.313h13.473v73.313a7.5 7.5 0 007.5 7.504zM15 206.465c0-7.863 6.395-14.258 14.258-14.258h21.57c7.863 0 14.258 6.395 14.258 14.258v28.547h-21.54c-15.74 0-28.546-12.809-28.546-28.547zm36.7 100.379v-56.832h13.39v56.832c0 9.105 7.406 16.511 16.512 16.511h6.093A42.424 42.424 0 0091.2 336.75h-9.597c-16.489-.004-29.903-13.418-29.903-29.906zm176.288-34.867h13.473v23.222h-13.473zm159.856 64.77h-9.598a42.405 42.405 0 003.508-13.392h6.09c9.105 0 16.511-7.406 16.511-16.511l.004-56.836h13.387v56.836c0 16.488-13.414 29.902-29.902 29.902zm38.054-101.735H404.36v-28.547c0-7.863 6.395-14.258 14.254-14.258h21.575c7.863 0 14.257 6.395 14.257 14.258 0 15.738-12.804 28.547-28.547 28.547zm0 0"/></svg>