<svg id="Layer_1" enable-background="new 0 0 512 512" height="512" viewBox="0 0 512 512" width="512" xmlns="http://www.w3.org/2000/svg"><g><g><path d="m197.5 107c0-4.142-3.358-7.5-7.5-7.5h-54c-4.142 0-7.5 3.358-7.5 7.5v50c0 4.142 3.358 7.5 7.5 7.5h54c4.142 0 7.5-3.358 7.5-7.5zm-15 42.5h-39v-35h39z"/><path d="m383.5 107c0-4.142-3.358-7.5-7.5-7.5h-54c-4.142 0-7.5 3.358-7.5 7.5v50c0 4.142 3.358 7.5 7.5 7.5h54c4.142 0 7.5-3.358 7.5-7.5zm-15 42.5h-39v-35h39z"/><path d="m290.5 107c0-4.142-3.358-7.5-7.5-7.5h-54c-4.142 0-7.5 3.358-7.5 7.5v50c0 4.142 3.358 7.5 7.5 7.5h54c4.142 0 7.5-3.358 7.5-7.5zm-15 42.5h-39v-35h39z"/><path d="m197.5 193c0-4.142-3.358-7.5-7.5-7.5h-54c-4.142 0-7.5 3.358-7.5 7.5v50c0 4.142 3.358 7.5 7.5 7.5h54c4.142 0 7.5-3.358 7.5-7.5zm-15 42.5h-39v-35h39z"/><path d="m383.5 193c0-4.142-3.358-7.5-7.5-7.5h-54c-4.142 0-7.5 3.358-7.5 7.5v50c0 4.142 3.358 7.5 7.5 7.5h54c4.142 0 7.5-3.358 7.5-7.5zm-15 42.5h-39v-35h39z"/><path d="m290.5 193c0-4.142-3.358-7.5-7.5-7.5h-54c-4.142 0-7.5 3.358-7.5 7.5v50c0 4.142 3.358 7.5 7.5 7.5h54c4.142 0 7.5-3.358 7.5-7.5zm-15 42.5h-39v-35h39z"/><path d="m190 272.5h-54c-4.142 0-7.5 3.358-7.5 7.5v50c0 4.142 3.358 7.5 7.5 7.5h54c4.142 0 7.5-3.358 7.5-7.5v-50c0-4.142-3.358-7.5-7.5-7.5zm-7.5 50h-39v-35h39z"/><path d="m376 272.5h-54c-4.142 0-7.5 3.358-7.5 7.5v50c0 4.142 3.358 7.5 7.5 7.5h54c4.142 0 7.5-3.358 7.5-7.5v-50c0-4.142-3.358-7.5-7.5-7.5zm-7.5 50h-39v-35h39z"/><path d="m283 272.5h-54c-4.142 0-7.5 3.358-7.5 7.5v50c0 4.142 3.358 7.5 7.5 7.5h54c4.142 0 7.5-3.358 7.5-7.5v-50c0-4.142-3.358-7.5-7.5-7.5zm-7.5 50h-39v-35h39z"/><path d="m488.5 435.5h-68v-368.5c0-4.142-3.358-7.5-7.5-7.5h-28.615c-4.142 0-7.5 3.358-7.5 7.5s3.358 7.5 7.5 7.5h21.115v361h-51v-72.5c0-4.142-3.358-7.5-7.5-7.5h-50.769c-4.142 0-7.5 3.358-7.5 7.5s3.358 7.5 7.5 7.5h9.269v65h-99v-65h57.423c4.142 0 7.5-3.358 7.5-7.5s-3.358-7.5-7.5-7.5h-98.923c-4.142 0-7.5 3.358-7.5 7.5v72.5h-51v-47.526c0-4.142-3.358-7.5-7.5-7.5s-7.5 3.358-7.5 7.5v47.526h-68c-12.958 0-23.5 10.542-23.5 23.5s10.542 23.5 23.5 23.5h465c12.958 0 23.5-10.542 23.5-23.5s-10.542-23.5-23.5-23.5zm-168-65h19v65h-19zm-148 0h19v65h-19zm316 97h-465c-4.687 0-8.5-3.813-8.5-8.5s3.813-8.5 8.5-8.5h465c4.687 0 8.5 3.813 8.5 8.5s-3.813 8.5-8.5 8.5z"/><path d="m99 363.68c4.142 0 7.5-3.358 7.5-7.5v-281.68h244.654c4.142 0 7.5-3.358 7.5-7.5s-3.358-7.5-7.5-7.5h-151.654v-22.5c0-4.142-3.358-7.5-7.5-7.5h-60c-4.142 0-7.5 3.358-7.5 7.5v22.5h-25.5c-4.142 0-7.5 3.358-7.5 7.5v289.18c0 4.142 3.358 7.5 7.5 7.5zm40.5-319.18h45v15h-45z"/></g></g></svg>