<svg id="Capa_1" enable-background="new 0 0 512 512" height="512" viewBox="0 0 512 512" width="512" xmlns="http://www.w3.org/2000/svg"><path d="m499.5 456.743c6.893 0 12.5-5.607 12.5-12.5v-187.424c0-6.893-5.607-12.5-12.5-12.5h-5.169c1.795-6.135 2.793-12.711 2.793-19.567 0-32.9-22.423-59.666-49.985-59.666-5.683 0-11.236 1.129-16.484 3.309v-7.589c0-4.143-3.357-7.5-7.5-7.5s-7.5 3.357-7.5 7.5v7.589c-5.192-2.157-10.682-3.282-16.302-3.306-3-8.207-7.859-15.714-14.362-21.964-9.041-8.689-20.382-14.131-32.522-15.744-.035-.25-.069-.5-.109-.75v-23.813c0-4.143-3.357-7.5-7.5-7.5-3.258 0-6.022 2.081-7.058 4.983-4.229-3.701-9.091-6.512-14.291-8.363.035-.901.055-1.806.055-2.717 0-8.321-1.402-16.372-4.168-23.929-1.423-3.891-5.727-5.89-9.62-4.466-3.891 1.423-5.89 5.73-4.466 9.62 2.159 5.9 3.254 12.218 3.254 18.774 0 .047-.002.094-.002.141-2.461.004-4.935.2-7.4.623-4.482.771-8.01 4.3-8.776 8.779-.62 3.618-.774 7.258-.5 10.842-.6-.026-1.201-.051-1.806-.051-5.683 0-11.235 1.129-16.483 3.309v-7.588c0-4.143-3.357-7.5-7.5-7.5s-7.5 3.357-7.5 7.5v7.588c-5.249-2.18-10.801-3.309-16.484-3.309-6.112 0-11.969 1.322-17.387 3.729-8.46-11.322-20.47-18.784-33.925-19.859-.104-1.386-.175-2.784-.175-4.204 0-24.629 15.694-44.666 34.986-44.666 5.78 0 11.419 1.833 16.484 5.319v.643c0 4.143 3.357 7.5 7.5 7.5s7.5-3.357 7.5-7.5v-.643c5.065-3.486 10.704-5.319 16.483-5.319 4.477 0 8.837 1.074 12.959 3.192 3.682 1.891 8.205.44 10.099-3.243 1.894-3.685.441-8.205-3.243-10.099-6.264-3.219-12.931-4.851-19.814-4.851-5.683 0-11.235 1.129-16.483 3.309v-7.588c0-4.143-3.357-7.5-7.5-7.5s-7.5 3.357-7.5 7.5v7.588c-5.249-2.18-10.801-3.309-16.484-3.309-27.563 0-49.986 26.766-49.986 59.666 0 1.913.095 3.799.246 5.665-1.669.469-3.314 1.039-4.93 1.71v-7.589c0-4.143-3.357-7.5-7.5-7.5s-7.5 3.357-7.5 7.5v7.589c-5.248-2.18-10.801-3.309-16.484-3.309-18.189 0-34.136 11.66-42.88 29.044v-12.781c0-4.143-3.357-7.5-7.5-7.5-3.258 0-6.023 2.081-7.058 4.983-9.975-8.731-23.459-12.578-36.632-10.318-4.485.768-8.015 4.297-8.782 8.779-2.425 14.146 2.177 28.642 12.31 38.773.98.98 2.009 1.885 3.06 2.757-1.343 1.122-2.648 2.301-3.9 3.553-10.955 10.954-16.988 25.518-16.988 41.01 0 3.769.367 7.543 1.091 11.221 1.529 7.767-.307 15.737-5.037 21.867-4.637 6.008-8.329 12.636-11.019 19.643h-3.626c-6.893 0-12.5 5.607-12.5 12.5v187.424c0 6.893 5.607 12.5 12.5 12.5h7v22.48h-12c-4.143 0-7.5 3.357-7.5 7.5s3.357 7.5 7.5 7.5h497c4.143 0 7.5-3.357 7.5-7.5s-3.357-7.5-7.5-7.5h-12v-22.48h7zm-97.754-260.59c0-.001.001-.001.001-.002.88-4.442 1.236-9.011 1.06-13.576-.029-.756-.083-1.509-.142-2.26 4.549.585 8.952 2.311 12.99 5.09v.643c0 4.143 3.357 7.5 7.5 7.5s7.5-3.357 7.5-7.5v-.643c5.065-3.486 10.703-5.319 16.484-5.319 19.291 0 34.985 20.037 34.985 44.666 0 7.016-1.277 13.656-3.546 19.567h-58.477c-2.67-9.467-7.131-18.371-13.291-26.356-4.746-6.154-6.591-14.104-5.064-21.81zm-56.886-39.033c4.143 0 7.5-3.357 7.5-7.5v-7.066c19.386 3.523 34.677 20.384 35.458 40.601.131 3.396-.133 6.787-.786 10.082-2.369 11.952.511 24.304 7.901 33.887 4.076 5.284 7.215 11.073 9.409 17.195h-39.749v-6.219c0-30.052-24.448-54.5-54.5-54.5h-8.193c.315-11.013 4.74-21.323 12.564-29.146 6.323-6.321 14.269-10.418 22.896-11.928v7.093c0 4.144 3.358 7.501 7.5 7.501zm4.734 80.981v6.219h-130.848v-6.219c0-21.78 17.72-39.5 39.5-39.5h18.663c.825 3.246 3.758 5.65 7.261 5.65s6.436-2.404 7.261-5.65h18.663c21.78 0 39.5 17.719 39.5 39.5zm-42.784-133.695c8.338-.535 16.57 2.539 22.524 8.495 4.061 4.06 6.751 9.083 7.909 14.473-5.436.709-10.692 2.175-15.647 4.347-2.268-1.286-4.387-2.886-6.292-4.791-5.955-5.953-9.019-14.191-8.494-22.524zm-64.697 20.15c5.78 0 11.419 1.833 16.484 5.319v.643c0 4.143 3.357 7.5 7.5 7.5s7.5-3.357 7.5-7.5v-.643c5.065-3.486 10.704-5.319 16.483-5.319 2.031 0 4.019.231 5.955.657 2.14 4.52 5.04 8.704 8.661 12.324.98.98 2.009 1.886 3.06 2.758-1.343 1.122-2.648 2.301-3.9 3.553-7.146 7.145-12.181 15.832-14.831 25.304-1.309-1.115-3.003-1.791-4.857-1.791-4.143 0-7.5 3.357-7.5 7.5v8.739h-18.424c-12.232 0-23.535 4.052-32.64 10.882-4.784-4.363-10.338-7.888-16.441-10.339-1.305-4.672-2.038-9.686-2.038-14.923.002-24.627 15.696-44.664 34.988-44.664zm-102.655-16.268c5.782 0 11.42 1.833 16.484 5.318v.643c0 4.143 3.357 7.5 7.5 7.5s7.5-3.357 7.5-7.5v-.643c5.064-3.485 10.703-5.318 16.484-5.318 9.67 0 18.43 5.041 24.767 13.165-12.175 10.892-20.067 28.25-20.067 47.769 0 3.825.317 7.56.899 11.185-1.353-.101-2.714-.171-4.093-.171h-18.422v-8.739c0-4.143-3.357-7.5-7.5-7.5s-7.5 3.357-7.5 7.5v8.739h-9.583c-2.293-11.486-8.049-22.047-16.718-30.379-6.434-6.184-14.037-10.714-22.259-13.403 5.151-16.486 17.78-28.166 32.508-28.166zm-88.431 2.85c8.333-.53 16.569 2.539 22.524 8.494 0 0 0 .001.001.001 4.06 4.06 6.75 9.083 7.908 14.473-5.437.709-10.693 2.176-15.65 4.348-2.267-1.286-4.385-2.887-6.29-4.792-5.953-5.954-9.016-14.192-8.493-22.524zm-12.011 122.703c7.372-9.554 10.244-21.921 7.879-33.929-.536-2.725-.808-5.525-.808-8.323 0-11.484 4.473-22.282 12.595-30.402 6.323-6.321 14.269-10.418 22.896-11.928v7.092c0 4.143 3.357 7.5 7.5 7.5s7.5-3.357 7.5-7.5v-7.067c16.334 2.968 29.749 15.409 34.036 31.349-27.011 3.212-48.029 26.242-48.029 54.103v9.584h-50.097c1.819-3.682 3.995-7.197 6.528-10.479zm-24.016 25.478h133c4.143 0 7.5-3.357 7.5-7.5s-3.357-7.5-7.5-7.5h-50.414v-9.584c0-21.78 17.72-39.5 39.5-39.5h18.663c.825 3.246 3.758 5.65 7.261 5.65s6.436-2.404 7.261-5.65h18.663c9.959 0 19.055 3.72 26.008 9.826-7.016 9.173-11.196 20.625-11.196 33.039v6.219h-19.746c-4.143 0-7.5 3.357-7.5 7.5s3.357 7.5 7.5 7.5h313v83.712h-482zm120.5 219.905h-101v-22.48h101zm342 0h-101v-22.48h101zm-141.5-37.481c-4.143 0-7.5 3.357-7.5 7.5s3.357 7.5 7.5 7.5h25.5v22.48h-211v-22.48h149.5c4.143 0 7.5-3.357 7.5-7.5s-3.357-7.5-7.5-7.5h-285v-83.712h482v83.712z"/><circle cx="39" cy="281.623" r="7.5"/><circle cx="39" cy="314.756" r="7.5"/><circle cx="39" cy="383.623" r="7.5"/><circle cx="39" cy="416.756" r="7.5"/><circle cx="473" cy="281.623" r="7.5"/><circle cx="473" cy="314.756" r="7.5"/><circle cx="473" cy="383.623" r="7.5"/><circle cx="473" cy="416.756" r="7.5"/></svg>