<svg id="Capa_1" enable-background="new 0 0 512.007 512.007" height="512" viewBox="0 0 512.007 512.007" width="512" xmlns="http://www.w3.org/2000/svg"><g><path d="m484.275 209.52c-19.108-193.048-254.074-279.266-393.692-143.441-55.21 53.711-78.329 127.711-68.242 199.295-9.606 4.448-16.29 14.174-16.29 25.438 0 15.451 12.57 28.021 28.021 28.021h179.903c1.423 1.503 2.915 2.944 4.477 4.289l31.402 27.035c.992.854 1.562 2.096 1.562 3.405v48.468c-5.619 2.89-9.479 8.736-9.479 15.478v19.862c0 6.742 3.86 12.587 9.479 15.477v31.138c0 15.45 12.57 28.02 28.021 28.02s28.021-12.57 28.021-28.02v-30.715c6.093-2.712 10.357-8.812 10.357-15.9v-19.862c0-7.088-4.265-13.189-10.357-15.901v-20.787c0-4.143-3.357-7.5-7.5-7.5s-7.5 3.357-7.5 7.5v19.282h-26.043v-46.539c0-5.683-2.47-11.067-6.775-14.773l-23.458-20.195c10.281-.917 20.124-4.498 28.316-9.985l12.133 10.445c8.286 7.133 13.729 17.026 15.324 27.858.603 4.099 4.427 6.932 8.513 6.327 4.098-.604 6.931-4.415 6.327-8.513-2.121-14.4-9.358-27.556-20.378-37.041l-10.494-9.034c1.514-1.692-4.21 4.938 27.816-32.262.853-.992 2.094-1.561 3.403-1.561h170.789c15.451 0 28.021-12.57 28.021-28.021.003-13.269-9.271-24.406-21.677-27.288zm-191.815 274.466c0 7.18-5.842 13.021-13.021 13.021s-13.021-5.841-13.021-13.021v-29.21h26.043v29.21zm-35.523-66.477c0-1.251 1.016-2.305 2.25-2.39.013 0 .025 0 .038-.001l40.735-.016h.451c1.305 0 2.406 1.102 2.406 2.406v19.862c0 1.304-1.102 2.405-2.406 2.405h-.451-40.467l-.269-.016c-.009 0-.018.001-.027 0-1.239-.08-2.26-1.136-2.26-2.39zm-136.562-357.081h45.438c5.812 0 10.783 4.33 11.319 9.857.644 6.645-4.675 12.038-10.895 12.038h-70.244c7.575-7.882 15.721-15.209 24.382-21.895zm-66.928 85.163h130.105c5.812 0 10.783 4.33 11.319 9.857.644 6.645-4.675 12.038-10.895 12.038h-17.222c-9.662 0-15.74 10.387-11.007 18.856 8.681 15.534-2.719 34.541-21.004 34.541h-99.377c1.442-26.614 7.768-52.001 18.081-75.292zm81.297 90.293c28.028 0 46.748-28.108 35.809-53.397h13.424c15.206 0 27.308-13.185 25.824-28.485-1.294-13.346-12.578-23.41-26.249-23.41h-122.77c6.334-11.771 13.729-22.898 22.037-33.268h83.419c15.206 0 27.308-13.185 25.824-28.485-1.294-13.346-12.578-23.41-26.249-23.41h-23.36c67.649-40.214 149.208-39.803 215.166-3.25h-7.461c-20.794 0-37.876 15.973-38.89 36.363-.291 5.868.769 11.687 3.081 17.034h-12.999c-13.671 0-24.956 10.063-26.249 23.408-1.486 15.323 10.639 28.487 25.824 28.487h67.485c4.143 0 7.5-3.357 7.5-7.5s-3.357-7.5-7.5-7.5h-67.485c-6.223 0-11.538-5.397-10.895-12.039.536-5.527 5.508-9.856 11.319-9.856h16.797c9.66 0 15.74-10.386 11.007-18.855-2.115-3.786-3.12-8.086-2.903-12.435.615-12.396 11.117-22.107 23.907-22.107h30.884c26.911 19.734 49.226 45.48 64.824 75.293h-42.455c-4.143 0-7.5 3.357-7.5 7.5s3.357 7.5 7.5 7.5h49.571c8.226 19.174 13.779 39.762 16.142 61.316h-161.979c-17.646 0-34.368 7.67-45.877 21.041l-27.035 31.402c-.854.992-2.095 1.561-3.404 1.561h-193.711c-1.233-8.897-1.917-17.9-2.051-26.907h99.678zm343.19 13.946h-170.79c-5.684 0-11.068 2.471-14.772 6.775l-27.034 31.401c-8.583 9.97-21.144 15.765-34.319 15.822-.063 0-.127.004-.19.004-4.153 0-184.096.001-196.755.001-7.18 0-13.021-5.842-13.021-13.021 0-7.339 6.043-13.021 13.021-13.021h196.755c5.683 0 11.067-2.47 14.772-6.774l27.035-31.402c8.657-10.059 21.235-15.827 34.509-15.827h170.19.599c7.18 0 13.021 5.842 13.021 13.021s-5.842 13.021-13.021 13.021z"/></g></svg>