<?xml version="1.0" encoding="iso-8859-1"?>
<!-- Generator: Adobe Illustrator 19.0.0, SVG Export Plug-In . SVG Version: 6.00 Build 0)  -->
<svg version="1.1" id="Capa_1" xmlns="http://www.w3.org/2000/svg" xmlns:xlink="http://www.w3.org/1999/xlink" x="0px" y="0px"
	 viewBox="0 0 511.999 511.999" style="enable-background:new 0 0 511.999 511.999;" xml:space="preserve">
<g>
	<g>
		<path d="M70.792,130.062c-4.142,0-7.5,3.358-7.5,7.5v148c0,4.142,3.358,7.5,7.5,7.5c4.142,0,7.5-3.358,7.5-7.5v-148
			C78.292,133.419,74.934,130.062,70.792,130.062z"/>
	</g>
</g>
<g>
	<g>
		<path d="M116.208,179.711c-4.142,0-7.5,3.358-7.5,7.5v98.35c0,4.142,3.358,7.5,7.5,7.5c4.142,0,7.5-3.358,7.5-7.5v-98.35
			C123.708,183.068,120.351,179.711,116.208,179.711z"/>
	</g>
</g>
<g>
	<g>
		<path d="M116.208,130.062c-4.142,0-7.5,3.358-7.5,7.5v14.753c0,4.142,3.358,7.5,7.5,7.5c4.142,0,7.5-3.358,7.5-7.5v-14.753
			C123.708,133.419,120.351,130.062,116.208,130.062z"/>
	</g>
</g>
<g>
	<g>
		<path d="M176.625,130.062c-4.142,0-7.5,3.358-7.5,7.5v148c0,4.142,3.358,7.5,7.5,7.5c4.142,0,7.5-3.358,7.5-7.5v-148
			C184.125,133.419,180.767,130.062,176.625,130.062z"/>
	</g>
</g>
<g>
	<g>
		<path d="M229.542,130.062c-4.142,0-7.5,3.358-7.5,7.5v148c0,4.142,3.358,7.5,7.5,7.5c4.142,0,7.5-3.358,7.5-7.5v-148
			C237.042,133.419,233.684,130.062,229.542,130.062z"/>
	</g>
</g>
<g>
	<g>
		<path d="M282.458,130.062c-4.142,0-7.5,3.358-7.5,7.5v148c0,4.142,3.358,7.5,7.5,7.5c4.142,0,7.5-3.358,7.5-7.5v-148
			C289.958,133.419,286.601,130.062,282.458,130.062z"/>
	</g>
</g>
<g>
	<g>
		<path d="M335.375,130.062c-4.142,0-7.5,3.358-7.5,7.5v148c0,4.142,3.358,7.5,7.5,7.5c4.142,0,7.5-3.358,7.5-7.5v-148
			C342.875,133.419,339.517,130.062,335.375,130.062z"/>
	</g>
</g>
<g>
	<g>
		<path d="M388.167,265.87c-4.142,0-7.5,3.358-7.5,7.5v12.192c0,4.142,3.358,7.5,7.5,7.5c4.142,0,7.5-3.358,7.5-7.5V273.37
			C395.667,269.228,392.309,265.87,388.167,265.87z"/>
	</g>
</g>
<g>
	<g>
		<path d="M388.167,130.062c-4.142,0-7.5,3.358-7.5,7.5v100.912c0,4.142,3.358,7.5,7.5,7.5c4.142,0,7.5-3.358,7.5-7.5V137.562
			C395.667,133.419,392.309,130.062,388.167,130.062z"/>
	</g>
</g>
<g>
	<g>
		<path d="M441.208,130.062c-4.142,0-7.5,3.358-7.5,7.5v148c0,4.142,3.358,7.5,7.5,7.5c4.142,0,7.5-3.358,7.5-7.5v-148
			C448.708,133.419,445.35,130.062,441.208,130.062z"/>
	</g>
</g>
<g>
	<g>
		<path d="M500.289,318.569h-5.777V105.346c0-9.723-7.91-17.633-17.633-17.633H35.122c-9.723,0-17.633,7.91-17.633,17.633v213.223
			h-5.777C5.254,318.569,0,323.823,0,330.281v29.33c0,6.458,5.254,11.711,11.711,11.711h30.677c-0.169,1.638-0.262,3.285-0.262,4.94
			c0,26.481,21.544,48.025,48.026,48.025c26.482,0,48.025-21.544,48.025-48.025c0-1.655-0.093-3.302-0.262-4.94h236.169
			c-0.169,1.638-0.262,3.285-0.262,4.94c0,26.481,21.544,48.025,48.025,48.025c26.481,0,48.026-21.544,48.026-48.025
			c0-1.655-0.093-3.302-0.262-4.94h30.677c6.458,0,11.711-5.254,11.711-11.711v-29.33C512,323.823,506.746,318.569,500.289,318.569z
			 M32.489,105.346c0-1.452,1.181-2.633,2.633-2.633h441.757c1.452,0,2.633,1.181,2.633,2.633v213.223H32.489V105.346z
			 M90.152,409.287c-18.21,0-33.026-14.815-33.026-33.025c0-1.659,0.124-3.31,0.37-4.94h8.072c-0.32,1.609-0.484,3.262-0.484,4.94
			c0,13.822,11.246,25.067,25.068,25.067c13.822,0,25.067-11.245,25.067-25.067c0-1.678-0.164-3.331-0.484-4.94h8.072
			c0.246,1.63,0.37,3.281,0.37,4.94C123.177,394.472,108.362,409.287,90.152,409.287z M80.084,376.262
			c0-1.759,0.448-3.449,1.291-4.94h17.553c0.843,1.491,1.291,3.181,1.291,4.94c0,5.551-4.516,10.067-10.067,10.067
			C84.601,386.329,80.084,381.813,80.084,376.262z M421.848,409.287c-18.21,0-33.025-14.815-33.025-33.025
			c0-1.659,0.124-3.31,0.37-4.94h8.072c-0.32,1.609-0.484,3.262-0.484,4.94c0,13.822,11.245,25.067,25.067,25.067
			c13.822,0,25.068-11.245,25.068-25.067c0-1.678-0.164-3.331-0.484-4.94h8.072c0.246,1.63,0.37,3.281,0.37,4.94
			C454.874,394.472,440.059,409.287,421.848,409.287z M411.781,376.262c0-1.759,0.448-3.449,1.291-4.94h17.553
			c0.843,1.491,1.291,3.181,1.291,4.94c0,5.551-4.517,10.067-10.068,10.067C416.297,386.329,411.781,381.813,411.781,376.262z
			 M497,356.322H15v-22.752h482V356.322z"/>
	</g>
</g>
<g>
</g>
<g>
</g>
<g>
</g>
<g>
</g>
<g>
</g>
<g>
</g>
<g>
</g>
<g>
</g>
<g>
</g>
<g>
</g>
<g>
</g>
<g>
</g>
<g>
</g>
<g>
</g>
<g>
</g>
</svg>
