<svg height="512pt" viewBox="-21 0 512 512" width="512pt" xmlns="http://www.w3.org/2000/svg"><path d="m469.445312 206.464844c0-16.132813-13.125-29.257813-29.253906-29.257813h-21.574218c-16.132813 0-29.257813 13.125-29.257813 29.257813v36.046875l-.003906 64.332031c0 .835938-.675781 1.511719-1.511719 1.511719h-8.578125c-4.019531-7.804688-12.160156-13.15625-21.53125-13.15625h-101.273437v-23.222657h46.027343c16.25 0 31.789063-6.945312 42.625-19.054687 10.835938-12.109375 16.019531-28.316406 14.226563-44.46875l-17.53125-157.578125c-3.230469-29.003906-27.667969-50.875-56.847656-50.875h-100.472657c-29.183593 0-53.621093 21.871094-56.847656 50.875l-2.671875 24.011719c-.457031 4.117187 2.507812 7.824219 6.625 8.285156 4.117188.457031 7.828125-2.511719 8.285156-6.625l2.667969-24.015625c2.382813-21.394531 20.410156-37.53125 41.941406-37.53125h100.472657c21.527343 0 39.558593 16.136719 41.9375 37.53125l17.53125 157.582031c1.324218 11.914063-2.5 23.871094-10.496094 32.804688-7.992188 8.933593-19.453125 14.058593-31.445313 14.058593h-135.53125c-11.988281 0-23.449219-5.125-31.445312-14.058593-7.996094-8.933594-11.820313-20.890625-10.496094-32.804688l11.542969-103.753906c.457031-4.113281-2.507813-7.824219-6.625-8.28125-4.109375-.457031-7.824219 2.507813-8.28125 6.625l-11.542969 103.75c-1.796875 16.152344 3.386719 32.359375 14.226563 44.46875 10.835937 12.109375 26.371093 19.054687 42.621093 19.054687h46.03125v23.222657h-101.277343c-9.367188 0-17.511719 5.351562-21.53125 13.15625h-8.578126c-.832031 0-1.511718-.675781-1.511718-1.511719l-.003906-64.332031v-36.046875c0-16.132813-13.125-29.257813-29.257813-29.257813h-21.570313c-16.132812 0-29.257812 13.125-29.257812 29.257813 0 21.679687 15.929688 39.710937 36.699219 43.007812v57.371094c0 24.761719 20.144531 44.902344 44.902343 44.902344h20.78125c7.476563 6.4375 17.195313 10.332031 27.808594 10.332031h82.796875v65.8125h-70.25c-34.394531 0-62.375 27.980469-62.375 62.375 0 11.984375 9.75 21.734375 21.734375 21.734375 11.988282 0 21.738282-9.75 21.738282-21.734375 0-10.425781 8.476562-18.90625 18.902343-18.90625h70.25v18.90625c0 11.984375 9.75 21.734375 21.734375 21.734375 11.988282 0 21.738282-9.75 21.738282-21.734375v-18.90625h70.25c10.421874 0 18.902343 8.480469 18.902343 18.902344 0 11.984375 9.75 21.738281 21.734375 21.738281 11.988282 0 21.738282-9.753906 21.738282-21.738281 0-34.394531-27.984376-62.375-62.375-62.375h-70.25v-65.8125h14.628906c4.144531 0 7.5-3.355469 7.5-7.5 0-4.140625-3.355469-7.5-7.5-7.5h-140.898438c-15.261718 0-27.679687-12.417969-27.679687-27.679688 0-5.070312 4.128906-9.199219 9.199219-9.199219h246.023437c5.074219 0 9.199219 4.128907 9.199219 9.199219 0 15.261719-12.414063 27.679688-27.679688 27.679688h-38.136718c-4.140626 0-7.5 3.359375-7.5 7.5 0 4.144531 3.359374 7.5 7.5 7.5h38.136718c10.613282 0 20.335938-3.894531 27.808594-10.328125h20.78125c24.761719 0 44.902344-20.144532 44.902344-44.902344v-57.375c20.773437-3.292969 36.699218-21.324219 36.699218-43.003906zm-220.484374 236.425781h77.75c26.121093 0 47.375 21.25 47.375 47.375 0 3.714844-3.023438 6.734375-6.738282 6.734375s-6.734375-3.019531-6.734375-6.734375c0-18.695313-15.210937-33.90625-33.902343-33.90625h-77.75c-4.144532 0-7.5 3.359375-7.5 7.5v26.40625c0 3.714844-3.023438 6.734375-6.738282 6.734375s-6.734375-3.019531-6.734375-6.734375v-26.40625c0-4.140625-3.359375-7.5-7.5-7.5h-77.75c-18.695312 0-33.902343 15.210937-33.902343 33.902344 0 3.714843-3.023438 6.738281-6.738282 6.738281s-6.734375-3.023438-6.734375-6.738281c0-26.121094 21.25-47.375 47.375-47.375h77.75c4.140625 0 7.5-3.355469 7.5-7.5v-73.3125h13.472657v73.3125c0 4.144531 3.355468 7.503906 7.5 7.503906zm-233.960938-236.425781c0-7.863282 6.394531-14.257813 14.257812-14.257813h21.570313c7.863281 0 14.257813 6.394531 14.257813 14.257813v28.546875h-21.539063c-15.742187 0-28.546875-12.808594-28.546875-28.546875zm36.699219 100.378906v-56.832031h13.390625v56.832031c0 9.105469 7.40625 16.511719 16.511718 16.511719h6.09375c.4375 4.730469 1.648438 9.234375 3.503907 13.394531h-9.597657c-16.488281-.003906-29.902343-13.417969-29.902343-29.90625zm176.289062-34.867188h13.472657v23.222657h-13.472657zm159.855469 64.769532h-9.597656c1.855468-4.15625 3.070312-8.664063 3.507812-13.390625h6.089844c9.105469 0 16.511719-7.40625 16.511719-16.511719l.003906-56.835938h13.386719v56.835938c0 16.488281-13.414063 29.902344-29.902344 29.902344zm38.054688-101.734375h-21.539063v-28.546875c0-7.863282 6.394531-14.257813 14.253906-14.257813h21.574219c7.863281 0 14.257812 6.394531 14.257812 14.257813 0 15.738281-12.804687 28.546875-28.546874 28.546875zm0 0"/></svg>