<?xml version="1.0" encoding="UTF-8"?>
<svg xmlns="http://www.w3.org/2000/svg" viewBox="0 0 64 64" width="512" height="512"><g id="email-envelope-mail-hand-letter"><path d="M60.17,51.05l.65-.98A7,7,0,0,0,62,46.18V32.48a8.942,8.942,0,0,0-2.64-6.36L54,20.76V11a3.009,3.009,0,0,0-3-3H5a3.009,3.009,0,0,0-3,3V39a3.009,3.009,0,0,0,3,3H40.87a10.878,10.878,0,0,0,1.73,7.69l.4.61V52H41a1,1,0,0,0-1,1v8a1,1,0,0,0,1,1H61a1,1,0,0,0,1-1V53a1,1,0,0,0-1-1H60v-.39A1,1,0,0,1,60.17,51.05ZM4,11a1,1,0,0,1,1-1H51a1,1,0,0,1,1,1v.41L29.47,24.03a3.016,3.016,0,0,1-2.94,0L4,11.41ZM5,40a1,1,0,0,1-1-1V13.71L25.56,25.78a5.04,5.04,0,0,0,4.88,0L52,13.71V28.84l-2.65-2.65a4.092,4.092,0,0,0-5.66.01,4.026,4.026,0,0,0,0,5.66l4.64,4.64A7.166,7.166,0,0,0,47.18,40ZM60,60H42V54H60Zm-.84-11.04-.65.98A2.966,2.966,0,0,0,58,51.62V52H45V49.7l-.74-1.12A8.861,8.861,0,0,1,42.91,42h4.41a7.3,7.3,0,0,0,1.43,3.05l.47.58A1.02,1.02,0,0,0,50,46a1,1,0,0,0,.78-1.63l-.47-.57a5.308,5.308,0,0,1,.1-6.75,1,1,0,0,0-.05-1.36l-5.25-5.24a2.025,2.025,0,0,1-.01-2.84,2.074,2.074,0,0,1,2.84,0l7.07,7.07a1,1,0,0,0,1.42-1.42L54,30.84V23.58l3.95,3.95A6.977,6.977,0,0,1,60,32.48v13.7A5.016,5.016,0,0,1,59.16,48.96Z"/></g></svg>
