<?xml version="1.0"?>
<svg xmlns="http://www.w3.org/2000/svg" viewBox="0 0 64 64" width="512" height="512"><g id="Delivery_all_time" data-name="Delivery all time"><path d="M51,33H44V22a3,3,0,0,0-3-3H32.949a10.994,10.994,0,0,0-21.9,0H5a3,3,0,0,0-3,3V56a3,3,0,0,0,3,3h6.812a5.986,5.986,0,0,0,10.376,0H46.812a5.986,5.986,0,0,0,10.376,0H59a3,3,0,0,0,3-3V44A11.013,11.013,0,0,0,51,33Zm8.941,10H49a1,1,0,0,1-1-1V35h3A9.01,9.01,0,0,1,59.941,43ZM46,35v7a3,3,0,0,0,3,3H60v8H57.188a5.986,5.986,0,0,0-10.376,0H44V35ZM22.188,53a5.986,5.986,0,0,0-10.376,0H4V49H42v4ZM22,11a9,9,0,1,1-9,9A9.01,9.01,0,0,1,22,11ZM4,22a1,1,0,0,1,1-1h6.051a10.994,10.994,0,0,0,21.9,0H41a1,1,0,0,1,1,1V47H4ZM5,57a1,1,0,0,1-1-1V55h7.09a5.6,5.6,0,0,0,0,2Zm12,3a4,4,0,1,1,4-4A4,4,0,0,1,17,60Zm5.91-3a5.6,5.6,0,0,0,0-2H46.09a5.6,5.6,0,0,0,0,2ZM52,60a4,4,0,1,1,4-4A4,4,0,0,1,52,60Zm8-4a1,1,0,0,1-1,1H57.91a5.6,5.6,0,0,0,0-2H60Z"/><path d="M18,21h4a1,1,0,0,0,1-1V14a1,1,0,0,0-2,0v5H18a1,1,0,0,0,0,2Z"/></g></svg>
