<?xml version="1.0"?>
<svg xmlns="http://www.w3.org/2000/svg" id="Objects" viewBox="0 0 64 64" width="512" height="512"><path d="M62.763,24.35a3.776,3.776,0,0,0-2.926-1.088A13.195,13.195,0,0,0,46.85,19.121l-5.41-5.586a1,1,0,0,0-.711-.3,1.143,1.143,0,0,0-.714.293l-8.566,8.566a1,1,0,0,0,0,1.414l.408.409L30.3,25.468l-5.706-2.009a1,1,0,0,0-.227-1.046l-9-9.005a1,1,0,0,0-1.411,0L.421,26.8a1,1,0,0,0,0,1.418l9.076,9.072a1,1,0,0,0,1.414,0l.579-.579,2.122,2.123.4,1.768L12.9,41.711a3.149,3.149,0,0,0-.2,4.328,3.059,3.059,0,0,0,2.173,1.016A3.045,3.045,0,0,0,17.844,50a2.987,2.987,0,0,0,.755,1.938,3.059,3.059,0,0,0,2.194,1.018,2.989,2.989,0,0,0,.755,1.93,3.06,3.06,0,0,0,2.214,1.022l.079,0A3.1,3.1,0,0,0,26.024,55l.595-.594.563.563a3.193,3.193,0,0,0,5.38-1.594,3.176,3.176,0,0,0,.558.053,3.064,3.064,0,0,0,3.074-2.96,3.044,3.044,0,0,0,2.947-2.947,3.051,3.051,0,0,0,2.058-.893,3.087,3.087,0,0,0,0-4.362l-.092-.092.045-.046A13.3,13.3,0,0,0,63.2,32.086a13.416,13.416,0,0,0-.269-2.57A3.791,3.791,0,0,0,62.763,24.35Zm-1.414,3.958L50.821,38.836a1.846,1.846,0,0,1-2.545,0L42.4,32.962a1.8,1.8,0,0,1,2.545-2.544l3.893,3.893a1,1,0,0,0,1.414,0L58.8,25.764a1.8,1.8,0,0,1,2.545,2.544ZM40.71,15.656,44.723,19.8a13.364,13.364,0,0,0-4.263,2.868l-3.381-3.381ZM35.665,20.7l3.5,3.5a13.3,13.3,0,0,0-1.535,2.654L33.57,22.8ZM14.652,15.525l3.861,3.862L6.467,31.433,2.543,27.511ZM7.881,32.846,19.927,20.8l2.319,2.319L10.2,35.165Zm6.431,10.28,2.374-2.374a1.085,1.085,0,0,1,1.535,0,1.087,1.087,0,0,1,0,1.535l-2.458,2.457a1.1,1.1,0,0,1-.8.317,1.079,1.079,0,0,1-.779-.36A1.166,1.166,0,0,1,14.312,43.126Zm2.865,3.032L19.635,43.7a1.085,1.085,0,1,1,1.534,1.534L18.8,47.609l-.005.006-.077.077a1.085,1.085,0,1,1-1.536-1.534Zm3.03,2.868,2.376-2.377a1.086,1.086,0,0,1,1.536,1.535l-2.458,2.457a1.025,1.025,0,0,1-.8.318,1.079,1.079,0,0,1-.78-.361A1.166,1.166,0,0,1,20.207,49.026Zm3.607,4.882a1.081,1.081,0,0,1-.78-.361,1.165,1.165,0,0,1,.125-1.575L24.3,50.827,25.533,49.6a1.085,1.085,0,1,1,1.534,1.535L24.609,53.59A1.047,1.047,0,0,1,23.814,53.908Zm6.453-.335a1.2,1.2,0,0,1-1.671-.014L28.033,53l.449-.449a3.063,3.063,0,0,0,.848-1.625l.951.951a1.19,1.19,0,0,1-.014,1.7Zm9.517-8.355a1.108,1.108,0,0,1-1.533,0L35.134,42.1,33.72,43.515l3.117,3.117a1.089,1.089,0,0,1,0,1.536,1.112,1.112,0,0,1-1.535,0L32.13,45,30.716,46.41l3.172,3.172a1.085,1.085,0,1,1-1.535,1.534l-.657-.657-2.6-2.6-.484.484c-.044-.05-.078-.107-.127-.155a3.054,3.054,0,0,0-2.055-.863,3.05,3.05,0,0,0-2.951-2.977,3,3,0,0,0-2.946-2.92A3.07,3.07,0,0,0,15.7,38.991l-.2-.886a1,1,0,0,0-.268-.485L12.9,35.293,23.129,25.064l3.239,1.14-1.891.268a1,1,0,0,0-.567.283l-5.3,5.3a3.086,3.086,0,0,0,4.363,4.365l3.291-3.281a1.939,1.939,0,0,1,1.5-.616,2.1,2.1,0,0,1,1.494.626L39.785,43.684A1.085,1.085,0,0,1,39.784,45.218Zm-9.1-13.481a4.084,4.084,0,0,0-2.909-1.218h-.013a4.088,4.088,0,0,0-2.9,1.2L21.563,35a1.085,1.085,0,1,1-1.535-1.535l5.059-5.059,5.615-.795a1,1,0,0,0,.567-.283l2-2,3.66,3.659a13.177,13.177,0,0,0,2.74,11.651l-.019.086Zm19.2,11.672a11.324,11.324,0,1,1,7.931-19.4,3.72,3.72,0,0,0-.417.341l-7.841,7.84L46.363,29a3.8,3.8,0,0,0-5.373,5.374l5.873,5.874a3.8,3.8,0,0,0,5.372,0l8.921-8.921c.017.252.044.5.044.757A11.336,11.336,0,0,1,49.876,43.409Z"/></svg>
