<svg version="1.1" id="Layer_1" xmlns="http://www.w3.org/2000/svg" x="0" y="0" viewBox="0 0 512 512" xml:space="preserve"><path d="M255-1C114.2-1-1 114.2-1 255s115.2 256 256 256 256-115.2 256-256S395.8-1 255-1zm0 494.933c-131.413 0-238.933-107.52-238.933-238.933S123.587 16.067 255 16.067 493.933 123.587 493.933 255 386.413 493.933 255 493.933z" transform="translate(1 1)"/><path d="M285.544 69.783l-3.237-.809c-4.267-.853-7.68-1.707-11.947-1.707-9.387-.853-20.48-.853-29.867 0-4.267.853-7.68.853-11.947 1.707l-7.68.853v.581c-44.928 8.34-84.365 32.817-112.03 67.137l-.61-.305-4.267 5.973c-8.533 11.947-16.213 23.893-21.333 36.693l-2.56 6.827.099.069c-8.32 21.165-12.899 44.172-12.899 68.198a186.2 186.2 0 008.673 56.269l-.14.051 2.56 7.68c4.267 11.093 9.387 22.187 15.36 32.427 0 1.707.853 2.56 1.707 3.413 1.707 2.56 4.267 5.973 5.973 8.533l4.267 5.12.046-.02c32.395 42.456 82.406 70.836 138.871 73.963 3.281.289 6.845.296 10.416.296s7.134-.007 10.416-.296c55.774-3.089 105.255-30.814 137.678-72.409l.386.172 4.267-5.973c2.56-2.56 4.267-5.973 5.973-8.533 0-.352.15-.852.381-1.375.388-.617.779-1.231 1.16-1.853.055-.062.11-.13.166-.186.341-.584.669-1.181 1.004-1.77 16.688-28.026 26.302-60.697 26.302-95.51.001-92.857-68.329-170.517-157.188-185.216zm-13.477 279.084v75.943l-.04.004h-3.373c-9.387.853-17.92.853-27.307 0h-1.707v-75.947c0-12.8-5.973-23.893-17.067-30.72s-23.893-6.827-34.987-1.707l-74.24 31.573c-.853-.853-.853-1.707-1.707-2.56l-1.707-2.56c-4.267-6.827-7.68-13.653-11.093-21.333l68.267-25.6.853-.853c9.387-5.12 16.213-16.213 17.92-29.013 1.707-12.8-1.707-25.6-10.24-34.133l-74.211-51.18a171.255 171.255 0 0112.26-21.182l66.218 33.109c11.093 7.68 27.307 7.68 40.107.853 11.093-6.827 17.92-17.067 17.92-29.867V85.19l.04-.004h3.373c9.387-.853 18.773-.853 27.307 0h3.373l.04.004v79.357c0 11.093 5.12 21.333 14.507 27.307 11.947 6.827 29.013 7.68 42.667 1.707l66.56-34.133c4.267 6.827 8.533 14.507 11.947 21.333l-72.533 50.347-.853.853c-8.533 7.68-11.947 20.48-10.24 34.133 1.707 12.8 8.533 23.893 17.92 29.013l69.973 25.6c-3.413 7.68-6.827 14.507-11.093 21.333l-1.707 2.56c-.853.853-.853 1.707-1.707 2.56l-73.387-30.72c-11.093-5.973-23.893-5.12-34.987 1.707-10.24 6.826-17.066 17.92-17.066 30.72zm77.653-67.414c-5.12-3.413-8.533-9.387-9.387-16.213-.853-7.68.853-15.36 5.12-19.627l70.011-48.579c6.595 18.118 10.202 37.641 10.202 57.966 0 17.901-2.801 35.178-7.973 51.423l-67.973-24.97zm36.104-135.731L321.56 178.2c-7.68 4.267-18.773 3.413-25.6-.853-4.267-2.56-6.827-6.827-6.827-12.8V87.788c38.465 7.888 72.314 28.826 96.691 57.934zM220.867 87.788v75.906c0 7.68-4.267 11.947-8.533 14.507-7.68 3.413-17.067 3.413-23.893-.853l-63.962-31.981c24.353-28.923 58.081-49.724 96.388-57.579zM84.333 255c0-20.403 3.632-39.999 10.276-58.176l69.084 47.936c4.267 4.267 5.973 11.947 5.12 19.627-1.707 7.68-4.267 13.653-9.387 16.213l-67.455 24.779A169.306 169.306 0 0184.333 255zm37.658 106.612l70.716-29.812c5.973-3.413 12.8-2.56 18.773.853 5.973 3.413 9.387 9.387 9.387 16.213v73.346c-39.629-8.126-74.357-30.106-98.876-60.6zm167.142 60.6v-73.346c0-6.827 3.413-12.8 8.533-16.213 5.973-3.413 12.8-4.267 19.627-.853l69.71 31.059c-24.458 29.847-58.782 51.338-97.87 59.353z" transform="translate(1 1)"/><path d="M255 212.333c-23.893 0-42.667 18.773-42.667 42.667 0 23.893 18.773 42.667 42.667 42.667 23.893 0 42.667-18.773 42.667-42.667 0-23.893-18.774-42.667-42.667-42.667zm0 68.267c-14.507 0-25.6-11.093-25.6-25.6 0-14.507 11.093-25.6 25.6-25.6 14.507 0 25.6 11.093 25.6 25.6 0 14.507-11.093 25.6-25.6 25.6z" transform="translate(1 1)"/></svg>