<svg version="1.1" id="Capa_1" xmlns="http://www.w3.org/2000/svg" x="0" y="0" viewBox="0 0 505.152 505.152" xml:space="preserve"><path d="M127.447 185.428H379.25a8.393 8.393 0 008.393-8.393 8.393 8.393 0 00-8.393-8.393H127.447a8.393 8.393 0 00-8.393 8.393 8.391 8.391 0 008.393 8.393zm151.082 243.41H135.84a8.393 8.393 0 100 16.786h142.689a8.393 8.393 0 100-16.786zM127.447 227.396H379.25a8.393 8.393 0 100-16.786H127.447c-4.636 0-8.393 3.758-8.393 8.393s3.757 8.393 8.393 8.393zm0 41.967h182.344a8.393 8.393 0 100-16.786H127.447c-4.636 0-8.393 3.758-8.393 8.393s3.757 8.393 8.393 8.393zm0 41.967h156.295a8.393 8.393 0 100-16.786H127.447c-4.636 0-8.393 3.758-8.393 8.393s3.757 8.393 8.393 8.393zm151.082 25.18H152.627a8.393 8.393 0 100 16.786h125.902a8.393 8.393 0 100-16.786z"/><path d="M438.004 258.452V118.281c0-.179-.092-.339-.103-.516a8.264 8.264 0 00-.434-2.178 8.013 8.013 0 00-.277-.779 8.273 8.273 0 00-1.645-2.462L326.431 3.232a8.26 8.26 0 00-2.455-1.641 8.123 8.123 0 00-.797-.284 8.265 8.265 0 00-2.145-.427c-.185-.012-.351-.107-.537-.107H93.873c-13.9.015-25.165 11.28-25.18 25.18v235.016a8.393 8.393 0 1016.786 0V25.953a8.401 8.401 0 018.393-8.393h218.23v83.934c.015 13.9 11.28 25.165 25.18 25.18h83.934v127.352c-.459-.079-.918-.073-1.377-.145-3.154-.487-6.35-.824-9.59-1.011-1.166-.07-2.328-.149-3.492-.177-.782-.018-1.542-.118-2.328-.118-2.355 0-4.66.194-6.973.353-.875.06-1.756.05-2.627.133-3.881.371-7.738.969-11.549 1.79-.805.173-1.585.422-2.384.614a99.937 99.937 0 00-8.875 2.558c-1.116.381-2.212.797-3.314 1.216a98.392 98.392 0 00-7.69 3.31c-1.058.507-2.122.983-3.163 1.526a101.08 101.08 0 00-9.121 5.372c-.856.569-1.668 1.201-2.51 1.797-2.378 1.692-4.693 3.459-6.911 5.346-1.241 1.052-2.42 2.169-3.612 3.283a101.244 101.244 0 00-4.724 4.727c-.717.767-1.524 1.43-2.219 2.221-.465.529-.846 1.113-1.299 1.65-.893 1.059-1.721 2.169-2.571 3.265-1.204 1.556-2.422 3.097-3.528 4.714-.994 1.448-1.879 2.969-2.797 4.469-.809 1.329-1.679 2.622-2.424 3.985a99.94 99.94 0 00-10.572 29.371c-.053.277-.078.559-.129.837a100.734 100.734 0 00-1.283 9.361c-.086.969-.088 1.946-.148 2.92-.114 1.964-.298 3.91-.298 5.902 0 .488.066.96.074 1.446.017 1.522.145 3.045.232 4.571.112 1.887.209 3.773.424 5.631.066.578.056 1.155.131 1.733a96.415 96.415 0 003.575 16.148c.097.314.201.623.3.936a100.48 100.48 0 002.871 7.826c.172.42.329.847.508 1.264a102.062 102.062 0 003.64 7.547c.62 1.166 1.308 2.284 1.972 3.422a102.71 102.71 0 005.068 7.85c.109.151.224.296.334.446a100.598 100.598 0 0073.175 41.474c1.175.103 2.351.118 3.528.178 1.631.079 3.239.248 4.89.248.928 0 1.826-.114 2.748-.139a98.053 98.053 0 004.047-.205 100.47 100.47 0 008.361-.923c.543-.085 1.088-.086 1.631-.18v26.627a8.401 8.401 0 01-8.393 8.393H93.873a8.401 8.401 0 01-8.393-8.393v-67.148a8.393 8.393 0 10-16.786 0v67.148c.015 13.9 11.28 25.165 25.18 25.18h318.951c13.9-.015 25.165-11.28 25.18-25.18v-31.056c40.187-14.234 67.074-52.211 67.148-94.845-.074-42.631-26.961-80.608-67.149-94.842zM337.283 109.887a8.401 8.401 0 01-8.393-8.393V29.428l80.459 80.459h-72.066zm89.871 324.134a85.978 85.978 0 01-11.31 2.341c-.431.059-.853.145-1.288.197a80.993 80.993 0 01-11.225.616c-.656-.008-1.296-.075-1.948-.098a80.607 80.607 0 01-10.309-1.013c-.293-.047-.589-.085-.881-.134a84.594 84.594 0 01-11.802-2.997 85.446 85.446 0 01-45.045-35.215c-.248-.396-.486-.797-.727-1.197a82.922 82.922 0 01-4.387-8.249c-.28-.605-.603-1.185-.868-1.799a81.556 81.556 0 01-3.335-9.211c-.354-1.191-.631-2.413-.934-3.626a79.377 79.377 0 01-1.422-6.941c-.197-1.216-.417-2.424-.56-3.657-.168-1.497-.255-2.984-.347-4.472-.089-1.432-.201-2.858-.217-4.308-.018-1.374.061-2.733.11-4.096.061-1.648.094-3.302.249-4.924.084-.902.246-1.786.359-2.681.265-2.063.527-4.127.94-6.14l.03-.122a83.453 83.453 0 0112.113-29.062c.216-.326.403-.665.623-.989 1.083-1.593 2.271-3.106 3.457-4.618.598-.761 1.174-1.536 1.801-2.281.898-1.066 1.861-2.07 2.809-3.09a83.83 83.83 0 015.076-5.01c.814-.74 1.598-1.512 2.443-2.22a83.66 83.66 0 017.914-5.875c.718-.472 1.472-.89 2.205-1.341a84.443 84.443 0 017.545-4.116c.627-.302 1.246-.621 1.881-.908a83.918 83.918 0 0122.472-6.485 83.43 83.43 0 0110.857-.887h.002a83.846 83.846 0 0111.68.706c.231.03.458.074.688.106 39.393 5.342 69.617 37.616 72.367 77.274 2.744 39.658-22.738 75.795-61.016 86.522z"/><path d="M463.185 344.904h-50.361v-50.361a8.393 8.393 0 10-16.786 0v50.361c.011 9.267 7.52 16.776 16.787 16.787h50.361c4.636 0 8.393-3.758 8.393-8.393s-3.759-8.394-8.394-8.394zm-339.406 58.562l6.127 6.127a8.391 8.391 0 0014.093-3.737 8.397 8.397 0 00-2.224-8.132l-5.972-5.972a65.622 65.622 0 00-17.437-43.872l-72.91-78.996a25.976 25.976 0 00-13.454-7.789 26.266 26.266 0 00-24.3 7.031c-9.978 9.921-10.301 25.964-.73 36.279l72.058 78.062a66.04 66.04 0 0044.749 20.999zM19.308 293.019a9.366 9.366 0 01.262-13.016v-.008a9.31 9.31 0 016.631-2.75l.197.004a9.285 9.285 0 016.713 3.021h.008l6.139 6.656-13.3 13.3-6.65-7.207zm31.348 6.25l55.381 60a48.864 48.864 0 0112.59 26.803 49.296 49.296 0 01-27.27-14.992l-54.003-58.509 13.302-13.302z"/></svg>