<svg height="512" viewBox="0 0 60 46" width="512" xmlns="http://www.w3.org/2000/svg"><g id="Page-1" fill="none" fill-rule="evenodd"><g id="005---Truck" fill="#000" fill-rule="nonzero"><path id="Shape" d="M44 36a3 3 0 100 6 3 3 0 000-6zm0 4a1 1 0 110-2 1 1 0 010 2zm-33-4a3 3 0 100 6 3 3 0 000-6zm0 4a1 1 0 110-2 1 1 0 010 2z"/><path id="Shape" d="M53.435 8.857A2.991 2.991 0 0050.66 7H39V3a3 3 0 00-3-3H3a3 3 0 00-3 3v28a2.981 2.981 0 001.08 2.286A3.992 3.992 0 004 40h.08a6.991 6.991 0 0013.84 0h19.16a6.991 6.991 0 0013.84 0H57a3 3 0 003-3V26.187c0-.915-.178-1.82-.527-2.666zm-1.85.762l6.038 14.665a5 5 0 01.217.716H46a1 1 0 01-1-1V9h5.66a1 1 0 01.925.619zM15.89 34h23.22a6.98 6.98 0 00-2.03 4H17.92a6.98 6.98 0 00-2.03-4zM2 3a1 1 0 011-1h33a1 1 0 011 1v29H3a1 1 0 01-1-1zm.587 34.413A2 2 0 014 34h2.11a6.98 6.98 0 00-2.03 4H4c-.53.001-1.04-.21-1.413-.587zM11 44a5 5 0 110-10 5 5 0 010 10zm33 0a5 5 0 110-10 5 5 0 010 10zm13-6h-6.08A7 7 0 0044 32h-5V9h4v15a3 3 0 003 3h12v2h-1a1 1 0 000 2h1v2h-1a1 1 0 000 2h1v2a1 1 0 01-1 1z"/><path id="Shape" d="M5 6h3a1 1 0 100-2H5a1 1 0 100 2zm7 0h22a1 1 0 000-2H12a1 1 0 000 2z"/></g></g></svg>