<svg id="Capa_1" height="512" width="512" xmlns="http://www.w3.org/2000/svg"><path d="M509.006 214.26c6.134-16.077 2.747-34.985-10.187-47.919L345.648 13.17c-17.546-17.546-46.096-17.544-63.64 0L109.807 185.372H45c-24.813 0-45 20.187-45 45v236.617c0 24.813 20.187 45 45 45h422c24.813 0 45-20.187 45-45V230.372a44.749 44.749 0 00-2.994-16.112zm-32.58-27.887a44.982 44.982 0 00-9.426-1.001h-32.503l20.464-20.464zm-42.678-42.678l-41.677 41.677h-42.428l62.891-62.891zM303.222 34.383c2.925-2.924 6.766-4.387 10.607-4.387s7.682 1.463 10.606 4.387l66.886 66.886-84.104 84.104H152.232zM482 466.989c0 8.271-6.729 15-15 15H45c-8.271 0-15-6.729-15-15V230.372c0-8.271 6.729-15 15-15h422c8.271 0 15 6.729 15 15z"/><path d="M59 406.585h69.903v30H59zm108.032 0h69.902v30h-69.902zm108.033 0h69.902v30h-69.902zm108.032 0H453v30h-69.903zm-246.83-151.213H85c-13.785 0-25 11.215-25 25v40c0 13.785 11.215 25 25 25h51.267c13.785 0 25-11.215 25-25v-40c0-13.785-11.215-25-25-25zm-5 60H90v-30h41.267z"/></svg>