<svg version="1.1" id="Capa_1" xmlns="http://www.w3.org/2000/svg" x="0" y="0" viewBox="0 0 512 512" xml:space="preserve"><path d="M31 0v270h60v47.75c0 20.797 6.098 40.938 17.635 58.244L137.972 420H121v92h240v-92h-16.972l29.338-44.006C384.902 358.688 391 338.547 391 317.75V270h90V0H31zm420 30v27.42c-12.764-4.527-22.893-14.656-27.42-27.42H451zM61 30h27.42C83.893 42.764 73.764 52.893 61 57.42V30zm0 210v-27.42c12.764 4.527 22.893 14.656 27.42 27.42H61zm270 242H151v-32h180v32zm30-164.25a74.764 74.764 0 01-12.596 41.603L307.973 420H174.027l-40.431-60.647A74.764 74.764 0 01121 317.75V152.57c17.461 6.191 30 22.873 30 42.429l-.001 75H166c26.065 0 44.81 9.277 57.303 28.363C234.881 316.048 241 342.549 241 375h30c0-38.851-7.603-70.164-22.597-93.068A95.851 95.851 0 00239.201 270H361v47.75zM451 240h-27.42c4.527-12.764 14.656-22.893 27.42-27.42V240zm.001-58.49c-29.345 5.979-52.511 29.146-58.492 58.49h-211.51l.001-45c0-41.355-33.645-75-75-75H91v75.041c-8.725-6.565-18.922-11.274-30-13.532V88.491c29.344-5.98 52.51-29.147 58.491-58.491H392.51c5.98 29.344 29.147 52.511 58.491 58.491v93.019z"/><path d="M256 60c-41.355 0-75 33.645-75 75s33.645 75 75 75 75-33.645 75-75-33.645-75-75-75zm0 120c-24.813 0-45-20.187-45-45s20.187-45 45-45 45 20.187 45 45-20.187 45-45 45zm105-60h30v30h-30z"/></svg>