<?xml version="1.0" encoding="utf-8"?><svg viewBox="0 0 512 512" xmlns="http://www.w3.org/2000/svg" xmlns:xlink="http://www.w3.org/1999/xlink"><style>:root>svg{display:none}:root>svg:target{display:block}</style><svg viewBox="0 0 39 39" id="arrow" xmlns="http://www.w3.org/2000/svg"><path d="M28.031 25.803l-7.312 7.312V1.333H18.28v31.782l-7.312-7.312-1.724 1.724L19.5 37.78l10.255-10.254-1.724-1.724z"/></svg><svg viewBox="0 0 512 512" id="bank-card" xmlns="http://www.w3.org/2000/svg"><path d="M509.006 214.26c6.134-16.077 2.747-34.985-10.187-47.919L345.648 13.17c-17.546-17.546-46.096-17.544-63.64 0L109.807 185.372H45c-24.813 0-45 20.187-45 45v236.617c0 24.813 20.187 45 45 45h422c24.813 0 45-20.187 45-45V230.372a44.749 44.749 0 00-2.994-16.112zm-32.58-27.887a44.982 44.982 0 00-9.426-1.001h-32.503l20.464-20.464zm-42.678-42.678l-41.677 41.677h-42.428l62.891-62.891zM303.222 34.383c2.925-2.924 6.766-4.387 10.607-4.387s7.682 1.463 10.606 4.387l66.886 66.886-84.104 84.104H152.232zM482 466.989c0 8.271-6.729 15-15 15H45c-8.271 0-15-6.729-15-15V230.372c0-8.271 6.729-15 15-15h422c8.271 0 15 6.729 15 15z"/><path d="M59 406.585h69.903v30H59zM167.032 406.585h69.902v30h-69.902zM275.065 406.585h69.902v30h-69.902zM383.097 406.585H453v30h-69.903zM136.267 255.372H85c-13.785 0-25 11.215-25 25v40c0 13.785 11.215 25 25 25h51.267c13.785 0 25-11.215 25-25v-40c0-13.785-11.215-25-25-25zm-5 60H90v-30h41.267z"/></svg><svg viewBox="0 0 512 512" id="cash" xmlns="http://www.w3.org/2000/svg"><path d="M31 0v270h60v47.75c0 20.797 6.098 40.938 17.635 58.244L137.972 420H121v92h240v-92h-16.972l29.338-44.006C384.902 358.688 391 338.547 391 317.75V270h90V0H31zm420 30v27.42c-12.764-4.527-22.893-14.656-27.42-27.42H451zM61 30h27.42C83.893 42.764 73.764 52.893 61 57.42V30zm0 210v-27.42c12.764 4.527 22.893 14.656 27.42 27.42H61zm270 242H151v-32h180v32zm30-164.25a74.764 74.764 0 01-12.596 41.603L307.973 420H174.027l-40.431-60.647A74.764 74.764 0 01121 317.75V152.57c17.461 6.191 30 22.873 30 42.429l-.001 75H166c26.065 0 44.81 9.277 57.303 28.363C234.881 316.048 241 342.549 241 375h30c0-38.851-7.603-70.164-22.597-93.068A95.851 95.851 0 00239.201 270H361v47.75zM451 240h-27.42c4.527-12.764 14.656-22.893 27.42-27.42V240zm.001-58.49c-29.345 5.979-52.511 29.146-58.492 58.49h-211.51l.001-45c0-41.355-33.645-75-75-75H91v75.041c-8.725-6.565-18.922-11.274-30-13.532V88.491c29.344-5.98 52.51-29.147 58.491-58.491H392.51c5.98 29.344 29.147 52.511 58.491 58.491v93.019z"/><path d="M256 60c-41.355 0-75 33.645-75 75s33.645 75 75 75 75-33.645 75-75-33.645-75-75-75zm0 120c-24.813 0-45-20.187-45-45s20.187-45 45-45 45 20.187 45 45-20.187 45-45 45zM361 120h30v30h-30z"/></svg><svg viewBox="0 0 491.996 491.996" id="chevron" xmlns="http://www.w3.org/2000/svg"><path d="M484.132 124.986l-16.116-16.228c-5.072-5.068-11.82-7.86-19.032-7.86-7.208 0-13.964 2.792-19.036 7.86l-183.84 183.848L62.056 108.554c-5.064-5.068-11.82-7.856-19.028-7.856s-13.968 2.788-19.036 7.856l-16.12 16.128c-10.496 10.488-10.496 27.572 0 38.06l219.136 219.924c5.064 5.064 11.812 8.632 19.084 8.632h.084c7.212 0 13.96-3.572 19.024-8.632l218.932-219.328c5.072-5.064 7.856-12.016 7.864-19.224 0-7.212-2.792-14.068-7.864-19.128z"/></svg><svg viewBox="0 0 64 64" id="location" xmlns="http://www.w3.org/2000/svg"><path d="M32 0A24.032 24.032 0 008 24c0 17.23 22.36 38.81 23.31 39.72a.99.99 0 001.38 0C33.64 62.81 56 41.23 56 24A24.032 24.032 0 0032 0zm0 35a11 11 0 1111-11 11.007 11.007 0 01-11 11z"/></svg><svg viewBox="0 0 512 512" id="mail" xmlns="http://www.w3.org/2000/svg"><path d="M298.789 313.693c-12.738 8.492-27.534 12.981-42.789 12.981-15.254 0-30.05-4.489-42.788-12.981L3.409 173.82A76.269 76.269 0 010 171.403V400.6c0 26.278 21.325 47.133 47.133 47.133h417.733c26.278 0 47.133-21.325 47.133-47.133V171.402a75.21 75.21 0 01-3.416 2.422z"/><path d="M20.05 148.858l209.803 139.874c7.942 5.295 17.044 7.942 26.146 7.942 9.103 0 18.206-2.648 26.148-7.942L491.95 148.858c12.555-8.365 20.05-22.365 20.05-37.475 0-25.981-21.137-47.117-47.117-47.117H47.117C21.137 64.267 0 85.403 0 111.408a44.912 44.912 0 0020.05 37.45z"/></svg><svg viewBox="0 0 405.333 405.333" id="phone" xmlns="http://www.w3.org/2000/svg"><path d="M373.333 266.88c-25.003 0-49.493-3.904-72.704-11.563-11.328-3.904-24.192-.896-31.637 6.699l-46.016 34.752c-52.8-28.181-86.592-61.952-114.389-114.368l33.813-44.928c8.512-8.512 11.563-20.971 7.915-32.64-7.723-23.36-11.648-47.872-11.648-72.832 0-17.643-14.357-32-32-32H32C14.357 0 0 14.357 0 32c0 205.845 167.488 373.333 373.333 373.333 17.643 0 32-14.357 32-32V298.88c0-17.643-14.357-32-32-32z"/></svg></svg>