<svg version="1.1" id="Capa_1" xmlns="http://www.w3.org/2000/svg" x="0" y="0" width="612" height="612" xml:space="preserve"><path d="M541.322 500.219v-94.372c0-20.277-16.438-36.716-36.715-36.716h-9.598V24.598a9.18 9.18 0 00-4.117-7.657L467.587 1.537c-6.103-4.033-14.239.342-14.239 7.657v110.652l-6.945-18.734c-9.34-25.196-33.373-41.918-60.245-41.918H225.702c-27.03 0-51.169 16.916-60.394 42.323l-6.655 18.329V9.194c0-7.314-8.137-11.69-14.24-7.657L121.107 16.94a9.178 9.178 0 00-4.118 7.657v344.534h-9.597c-20.277 0-36.715 16.438-36.715 36.716v94.372H55.035a9.178 9.178 0 00-9.178 9.179v50.743a9.179 9.179 0 009.178 9.179h39.598v24.322c0 10.139 8.219 18.357 18.358 18.357h48.645c10.139 0 18.358-8.219 18.358-18.357V569.32h252.014v24.322c0 10.139 8.22 18.357 18.357 18.357h48.646c10.139 0 18.357-8.219 18.357-18.357V569.32h39.598c5.07 0 9.179-4.11 9.179-9.179v-50.742a9.178 9.178 0 00-9.179-9.179l-15.644-.001zM170.814 170.975h270.372v90.44H170.814v-90.44zm-6.287 303.558H133.17c-9.581 0-17.348-7.768-17.348-17.349v-.438c0-9.581 7.767-17.348 17.348-17.348h31.356c9.581 0 17.348 7.767 17.348 17.348v.438c.001 9.581-7.766 17.349-17.347 17.349zm203.871 5.115H243.602c-10.139 0-18.358-8.22-18.358-18.357V344.976c0-10.138 8.219-18.357 18.358-18.357h124.796c10.138 0 18.357 8.22 18.357 18.357V461.29c.001 10.138-8.219 18.358-18.357 18.358zm110.431-5.115h-31.356c-9.58 0-17.348-7.768-17.348-17.349v-.438c0-9.581 7.768-17.348 17.348-17.348h31.356c9.581 0 17.349 7.767 17.349 17.348v.438c0 9.581-7.768 17.349-17.349 17.349zm-113.222-80.732H246.099a9.087 9.087 0 01-9.087-9.088v-.184a9.086 9.086 0 019.087-9.086h119.508a9.086 9.086 0 019.087 9.086v.184a9.087 9.087 0 01-9.087 9.088zm0-36.716H246.099a9.087 9.087 0 01-9.087-9.087v-.184a9.086 9.086 0 019.087-9.086h119.508a9.086 9.086 0 019.087 9.086v.184a9.087 9.087 0 01-9.087 9.087zm0 110.147H246.099a9.087 9.087 0 01-9.087-9.087v-.184a9.087 9.087 0 019.087-9.087h119.508a9.087 9.087 0 019.087 9.087v.184a9.087 9.087 0 01-9.087 9.087zm0-36.716H246.099a9.086 9.086 0 01-9.087-9.086v-.184a9.087 9.087 0 019.087-9.087h119.508a9.087 9.087 0 019.087 9.087v.184a9.086 9.086 0 01-9.087 9.086z"/></svg>