<svg version="1.1" id="Capa_1" xmlns="http://www.w3.org/2000/svg" x="0" y="0" width="31.119" height="31.119" xml:space="preserve"><path d="M26.065 14.984a1.348 1.348 0 00-1.343-1.146H13.836l-1.977-2.34c-.419-.492-1.034-.802-1.681-.802H3.105c-.504 0-.983.236-1.309.622a1.762 1.762 0 00-.379 1.414l.188 1.106h-.124a1.338 1.338 0 00-1.339 1.545l2.196 14.248a1.758 1.758 0 001.738 1.488h22.797a1.358 1.358 0 001.341-1.551l-2.149-14.584zm-5.42-10.633H12.13c-.587 0-1.063.53-1.063 1.118s.477 1.118 1.063 1.118h8.515c.589 0 1.064-.53 1.064-1.118s-.477-1.118-1.064-1.118zm10.032 7.835a1.309 1.309 0 00-.981-.464H27.28l.55 5.095 1.313 8.901 1.838-12.492a1.32 1.32 0 00-.304-1.04z"/><path d="M9.024 2.055h14.864v10.091h2.056V1.307A1.322 1.322 0 0024.629 0H8.191c-.786 0-1.402.647-1.402 1.433v7.812h2.235v-7.19z"/><path d="M20.645 8.46H12.13c-.511 0-.937.404-1.04.899a3.663 3.663 0 011.891 1.168l.155.168h7.509c.589 0 1.064-.53 1.064-1.118 0-.588-.477-1.117-1.064-1.117z"/></svg>