<?xml version="1.0" encoding="iso-8859-1"?>
<!-- Generator: Adobe Illustrator 19.0.0, SVG Export Plug-In . SVG Version: 6.00 Build 0)  -->
<svg version="1.1" id="Capa_1" xmlns="http://www.w3.org/2000/svg" xmlns:xlink="http://www.w3.org/1999/xlink" x="0px" y="0px"
	 viewBox="0 0 512 512" style="enable-background:new 0 0 512 512;" xml:space="preserve">
<g>
	<g>
		<path d="M31,0v270h60v47.75c0,20.797,6.098,40.938,17.635,58.244L137.972,420H121v92h240v-92h-16.972l29.338-44.006
			C384.902,358.688,391,338.547,391,317.75V270h90V0H31z M451,30v27.42c-12.764-4.527-22.893-14.656-27.42-27.42H451z M61,30h27.42
			C83.893,42.764,73.764,52.893,61,57.42V30z M61,240v-27.42c12.764,4.527,22.893,14.656,27.42,27.42H61z M331,482H151v-32h180V482z
			 M361,317.75c0,14.855-4.355,29.242-12.596,41.603L307.973,420H174.027l-40.431-60.647C125.355,346.992,121,332.605,121,317.75
			V152.57c17.461,6.191,30,22.873,30,42.429l-0.001,75H166c26.065,0,44.81,9.277,57.303,28.363C234.881,316.048,241,342.549,241,375
			h30c0-38.851-7.603-70.164-22.597-93.068c-2.813-4.297-5.884-8.275-9.202-11.932H361V317.75z M451,240h-27.42
			c4.527-12.764,14.656-22.893,27.42-27.42V240z M451.001,181.51c-29.345,5.979-52.511,29.146-58.492,58.49h-211.51L181,195
			c0-41.355-33.645-75-75-75H91v75.041c-8.725-6.565-18.922-11.274-30-13.532V88.491c29.344-5.98,52.51-29.147,58.491-58.491H392.51
			c5.98,29.344,29.147,52.511,58.491,58.491V181.51z"/>
	</g>
</g>
<g>
	<g>
		<path d="M256,60c-41.355,0-75,33.645-75,75s33.645,75,75,75s75-33.645,75-75S297.355,60,256,60z M256,180
			c-24.813,0-45-20.187-45-45s20.187-45,45-45s45,20.187,45,45S280.813,180,256,180z"/>
	</g>
</g>
<g>
	<g>
		<rect x="361" y="120" width="30" height="30"/>
	</g>
</g>
<g>
</g>
<g>
</g>
<g>
</g>
<g>
</g>
<g>
</g>
<g>
</g>
<g>
</g>
<g>
</g>
<g>
</g>
<g>
</g>
<g>
</g>
<g>
</g>
<g>
</g>
<g>
</g>
<g>
</g>
</svg>
