<svg xmlns="http://www.w3.org/2000/svg" viewBox="0 0 64 64" width="512" height="512"><g id="Calculator"><path d="M49 62H15a7.008 7.008 0 01-7-7V9a7.008 7.008 0 017-7h34a7.008 7.008 0 017 7v46a7.008 7.008 0 01-7 7zM15 4a5.006 5.006 0 00-5 5v46a5.006 5.006 0 005 5h34a5.006 5.006 0 005-5V9a5.006 5.006 0 00-5-5z"/><path d="M35 58h-6a3 3 0 01-3-3v-4a3 3 0 013-3h6a3 3 0 013 3v4a3 3 0 01-3 3zm-6-8a1 1 0 00-1 1v4a1 1 0 001 1h6a1 1 0 001-1v-4a1 1 0 00-1-1zm-8 8h-6a3 3 0 01-3-3v-4a3 3 0 013-3h6a3 3 0 013 3v4a3 3 0 01-3 3zm-6-8a1 1 0 00-1 1v4a1 1 0 001 1h6a1 1 0 001-1v-4a1 1 0 00-1-1zm34 8h-6a3 3 0 01-3-3V39a3 3 0 013-3h6a3 3 0 013 3v16a3 3 0 01-3 3zm-6-20a1 1 0 00-1 1v16a1 1 0 001 1h6a1 1 0 001-1V39a1 1 0 00-1-1zm-8 8h-6a3 3 0 01-3-3v-4a3 3 0 013-3h6a3 3 0 013 3v4a3 3 0 01-3 3zm-6-8a1 1 0 00-1 1v4a1 1 0 001 1h6a1 1 0 001-1v-4a1 1 0 00-1-1zm-8 8h-6a3 3 0 01-3-3v-4a3 3 0 013-3h6a3 3 0 013 3v4a3 3 0 01-3 3zm-6-8a1 1 0 00-1 1v4a1 1 0 001 1h6a1 1 0 001-1v-4a1 1 0 00-1-1zm20-4h-6a3 3 0 01-3-3v-4a3 3 0 013-3h6a3 3 0 013 3v4a3 3 0 01-3 3zm-6-8a1 1 0 00-1 1v4a1 1 0 001 1h6a1 1 0 001-1v-4a1 1 0 00-1-1zm-8 8h-6a3 3 0 01-3-3v-4a3 3 0 013-3h6a3 3 0 013 3v4a3 3 0 01-3 3zm-6-8a1 1 0 00-1 1v4a1 1 0 001 1h6a1 1 0 001-1v-4a1 1 0 00-1-1zm34 8h-6a3 3 0 01-3-3v-4a3 3 0 013-3h6a3 3 0 013 3v4a3 3 0 01-3 3zm-6-8a1 1 0 00-1 1v4a1 1 0 001 1h6a1 1 0 001-1v-4a1 1 0 00-1-1zm6-6H15a3 3 0 01-3-3V9a3 3 0 013-3h34a3 3 0 013 3v8a3 3 0 01-3 3zM15 8a1 1 0 00-1 1v8a1 1 0 001 1h34a1 1 0 001-1V9a1 1 0 00-1-1z"/><path d="M46 17a3 3 0 01-3-3v-2a3 3 0 016 0v2a3 3 0 01-3 3zm0-6a1 1 0 00-1 1v2a1 1 0 002 0v-2a1 1 0 00-1-1z"/></g></svg>