<svg xmlns="http://www.w3.org/2000/svg" viewBox="0 0 64 64" width="512" height="512"><path d="M60.17 51.05l.65-.98A7 7 0 0062 46.18v-13.7a8.942 8.942 0 00-2.64-6.36L54 20.76V11a3.009 3.009 0 00-3-3H5a3.009 3.009 0 00-3 3v28a3.009 3.009 0 003 3h35.87a10.878 10.878 0 001.73 7.69l.4.61V52h-2a1 1 0 00-1 1v8a1 1 0 001 1h20a1 1 0 001-1v-8a1 1 0 00-1-1h-1v-.39a1 1 0 01.17-.56zM4 11a1 1 0 011-1h46a1 1 0 011 1v.41L29.47 24.03a3.016 3.016 0 01-2.94 0L4 11.41zm1 29a1 1 0 01-1-1V13.71l21.56 12.07a5.04 5.04 0 004.88 0L52 13.71v15.13l-2.65-2.65a4.092 4.092 0 00-5.66.01 4.026 4.026 0 000 5.66l4.64 4.64a7.166 7.166 0 00-1.15 3.5zm55 20H42v-6h18zm-.84-11.04l-.65.98a2.966 2.966 0 00-.51 1.68V52H45v-2.3l-.74-1.12A8.861 8.861 0 0142.91 42h4.41a7.3 7.3 0 001.43 3.05l.47.58A1.02 1.02 0 0050 46a1 1 0 00.78-1.63l-.47-.57a5.308 5.308 0 01.1-6.75 1 1 0 00-.05-1.36l-5.25-5.24a2.025 2.025 0 01-.01-2.84 2.074 2.074 0 012.84 0l7.07 7.07a1 1 0 001.42-1.42L54 30.84v-7.26l3.95 3.95A6.977 6.977 0 0160 32.48v13.7a5.016 5.016 0 01-.84 2.78z" id="email-envelope-mail-hand-letter"/></svg>