<svg height="481pt" viewBox="0 0 481 481.391" width="481pt" xmlns="http://www.w3.org/2000/svg"><path d="M480.195 281.39h-16v-64c-.027-22.077-17.918-39.972-40-40H401.5l21.602-37.43a24.028 24.028 0 002.398-18.226 24.001 24.001 0 00-11.2-14.574l-180.183-104c-11.484-6.543-26.09-2.617-32.746 8.8l-95.473 165.43H40.195c-22.082.028-39.972 17.923-40 40v224c.028 22.083 17.918 39.973 40 40h384c22.082-.027 39.973-17.917 40-40v-64h16zM409.27 131.954l-44.73 77.438H219.882l84.855-147.016 101.602 58.656a8.108 8.108 0 012.93 10.922zm-244.817 77.438l98.75-170.993 27.68 16-89.465 154.993zm50.832-189.43a7.996 7.996 0 0110.91-2.922L249.34 30.4 145.98 209.39h-40.09zm232.91 421.43c0 13.254-10.746 24-24 24h-384c-13.254 0-24-10.746-24-24v-224c0-13.254 10.746-24 24-24H96.66l-9.265 16h-39.2v16h368v-16h-33.183l9.246-16h31.937c13.254 0 24 10.746 24 24v64h-88c-22.082.027-39.972 17.921-40 40v16c.028 22.082 17.918 39.972 40 40h88zm16-80h-104c-13.254 0-24-10.746-24-24v-16c0-13.254 10.746-24 24-24h104zm0 0"/><path d="M344.195 329.39c0 13.255 10.746 24 24 24s24-10.745 24-24-10.746-24-24-24-24 10.747-24 24zm24-8a8 8 0 110 16.001 8 8 0 010-16zm0 0"/></svg>