<svg xmlns="http://www.w3.org/2000/svg" viewBox="0 0 64 64" width="512" height="512"><g id="Delivery_all_time" data-name="Delivery all time"><path d="M51 33h-7V22a3 3 0 00-3-3h-8.051a10.994 10.994 0 00-21.9 0H5a3 3 0 00-3 3v34a3 3 0 003 3h6.812a5.986 5.986 0 0010.376 0h24.624a5.986 5.986 0 0010.376 0H59a3 3 0 003-3V44a11.013 11.013 0 00-11-11zm8.941 10H49a1 1 0 01-1-1v-7h3a9.01 9.01 0 018.941 8zM46 35v7a3 3 0 003 3h11v8h-2.812a5.986 5.986 0 00-10.376 0H44V35zM22.188 53a5.986 5.986 0 00-10.376 0H4v-4h38v4zM22 11a9 9 0 11-9 9 9.01 9.01 0 019-9zM4 22a1 1 0 011-1h6.051a10.994 10.994 0 0021.9 0H41a1 1 0 011 1v25H4zm1 35a1 1 0 01-1-1v-1h7.09a5.6 5.6 0 000 2zm12 3a4 4 0 114-4 4 4 0 01-4 4zm5.91-3a5.6 5.6 0 000-2h23.18a5.6 5.6 0 000 2zM52 60a4 4 0 114-4 4 4 0 01-4 4zm8-4a1 1 0 01-1 1h-1.09a5.6 5.6 0 000-2H60z"/><path d="M18 21h4a1 1 0 001-1v-6a1 1 0 00-2 0v5h-3a1 1 0 000 2z"/></g></svg>